<?xml version="1.0" encoding="UTF-8" standalone="no"?>
<!DOCTYPE svg PUBLIC "-//W3C//DTD SVG 1.1//EN"
 "http://www.w3.org/Graphics/SVG/1.1/DTD/svg11.dtd">
<!-- Generated by graphviz version 2.47.0 (20210316.0004)
 -->
<!-- Title: dependencies Pages: 1 -->
<svg width="746pt" height="211pt"
 viewBox="0.00 0.00 746.00 211.00" xmlns="http://www.w3.org/2000/svg" xmlns:xlink="http://www.w3.org/1999/xlink">
<g id="graph0" class="graph" transform="scale(1 1) rotate(0) translate(4 207)">
<title>dependencies</title>
<polygon fill="white" stroke="transparent" points="-4,4 -4,-207 742,-207 742,4 -4,4"/>
<text text-anchor="start" x="348.01" y="-42.4" font-family="Times-12" font-weight="bold" font-size="14.00">Legend</text>
<polygon fill="#ffffb3" stroke="transparent" points="135,-10 135,-30 155,-30 155,-10 135,-10"/>
<text text-anchor="start" x="158.63" y="-15.4" font-family="Times-12" font-size="14.00"> &#160;Declarations</text>
<polygon fill="#8dd3c7" stroke="transparent" points="248,-10 248,-30 268,-30 268,-10 248,-10"/>
<text text-anchor="start" x="271.73" y="-15.4" font-family="Times-12" font-size="14.00"> &#160;Module</text>
<polygon fill="#80b1d3" stroke="transparent" points="334,-10 334,-30 354,-30 354,-10 334,-10"/>
<text text-anchor="start" x="357.78" y="-15.4" font-family="Times-12" font-size="14.00"> &#160;Bootstrap</text>
<polygon fill="#fdb462" stroke="transparent" points="431,-10 431,-30 451,-30 451,-10 431,-10"/>
<text text-anchor="start" x="454.67" y="-15.4" font-family="Times-12" font-size="14.00"> &#160;Providers</text>
<polygon fill="#fb8072" stroke="transparent" points="527,-10 527,-30 547,-30 547,-10 527,-10"/>
<text text-anchor="start" x="550.73" y="-15.4" font-family="Times-12" font-size="14.00"> &#160;Exports</text>
<g id="clust1" class="cluster">
<title>cluster_BeneficiaryModule</title>
<polygon fill="none" stroke="black" stroke-dasharray="1,5" points="8,-70 8,-195 730,-195 730,-70 8,-70"/>
</g>
<g id="clust3" class="cluster">
<title>cluster_BeneficiaryModule_imports</title>
<polygon fill="none" stroke="black" points="620,-78 620,-130 722,-130 722,-78 620,-78"/>
</g>
<g id="clust6" class="cluster">
<title>cluster_BeneficiaryModule_providers</title>
<polygon fill="none" stroke="black" points="16,-78 16,-130 612,-130 612,-78 16,-78"/>
</g>
<!-- StatsModule -->
<g id="node1" class="node">
<title>StatsModule</title>
<polygon fill="#8dd3c7" stroke="black" points="714.27,-122 711.27,-126 690.27,-126 687.27,-122 627.73,-122 627.73,-86 714.27,-86 714.27,-122"/>
<text text-anchor="middle" x="671" y="-99.8" font-family="Times,serif" font-size="14.00">StatsModule</text>
</g>
<!-- BeneficiaryModule -->
<g id="node2" class="node">
<title>BeneficiaryModule</title>
<polygon fill="#8dd3c7" stroke="black" points="479.35,-187 476.35,-191 455.35,-191 452.35,-187 354.65,-187 354.65,-151 479.35,-151 479.35,-187"/>
<text text-anchor="middle" x="417" y="-164.8" font-family="Times,serif" font-size="14.00">BeneficiaryModule</text>
</g>
<!-- StatsModule&#45;&gt;BeneficiaryModule -->
<g id="edge1" class="edge">
<title>StatsModule&#45;&gt;BeneficiaryModule</title>
<path fill="none" stroke="black" d="M671,-122.11C671,-141.34 671,-169 671,-169 671,-169 489.46,-169 489.46,-169"/>
<polygon fill="black" stroke="black" points="489.46,-165.5 479.46,-169 489.46,-172.5 489.46,-165.5"/>
</g>
<!-- BeneficiaryService -->
<g id="node3" class="node">
<title>BeneficiaryService</title>
<ellipse fill="#fdb462" stroke="black" cx="519" cy="-104" rx="85.07" ry="18"/>
<text text-anchor="middle" x="519" y="-99.8" font-family="Times,serif" font-size="14.00">BeneficiaryService</text>
</g>
<!-- BeneficiaryService&#45;&gt;BeneficiaryModule -->
<g id="edge2" class="edge">
<title>BeneficiaryService&#45;&gt;BeneficiaryModule</title>
<path fill="none" stroke="black" d="M456.7,-116.53C456.7,-116.53 456.7,-140.85 456.7,-140.85"/>
<polygon fill="black" stroke="black" points="453.2,-140.85 456.7,-150.85 460.2,-140.85 453.2,-140.85"/>
</g>
<!-- BeneficiaryStatService -->
<g id="node4" class="node">
<title>BeneficiaryStatService</title>
<ellipse fill="#fdb462" stroke="black" cx="316" cy="-104" rx="100.11" ry="18"/>
<text text-anchor="middle" x="316" y="-99.8" font-family="Times,serif" font-size="14.00">BeneficiaryStatService</text>
</g>
<!-- BeneficiaryStatService&#45;&gt;BeneficiaryModule -->
<g id="edge3" class="edge">
<title>BeneficiaryStatService&#45;&gt;BeneficiaryModule</title>
<path fill="none" stroke="black" d="M385.32,-117.15C385.32,-117.15 385.32,-140.69 385.32,-140.69"/>
<polygon fill="black" stroke="black" points="381.82,-140.69 385.32,-150.69 388.82,-140.69 381.82,-140.69"/>
</g>
<!-- VerificationService -->
<g id="node5" class="node">
<title>VerificationService</title>
<ellipse fill="#fdb462" stroke="black" cx="111" cy="-104" rx="86.79" ry="18"/>
<text text-anchor="middle" x="111" y="-99.8" font-family="Times,serif" font-size="14.00">VerificationService</text>
</g>
<!-- VerificationService&#45;&gt;BeneficiaryModule -->
<g id="edge4" class="edge">
<title>VerificationService&#45;&gt;BeneficiaryModule</title>
<path fill="none" stroke="black" d="M111,-122.11C111,-141.34 111,-169 111,-169 111,-169 344.34,-169 344.34,-169"/>
<polygon fill="black" stroke="black" points="344.34,-172.5 354.34,-169 344.34,-165.5 344.34,-172.5"/>
</g>
</g>
</svg>
