<?xml version="1.0" encoding="UTF-8" standalone="no"?>
<!DOCTYPE svg PUBLIC "-//W3C//DTD SVG 1.1//EN"
 "http://www.w3.org/Graphics/SVG/1.1/DTD/svg11.dtd">
<!-- Generated by graphviz version 2.47.0 (20210316.0004)
 -->
<!-- Title: dependencies Pages: 1 -->
<svg width="971pt" height="211pt"
 viewBox="0.00 0.00 971.00 211.00" xmlns="http://www.w3.org/2000/svg" xmlns:xlink="http://www.w3.org/1999/xlink">
<g id="graph0" class="graph" transform="scale(1 1) rotate(0) translate(4 207)">
<title>dependencies</title>
<polygon fill="white" stroke="transparent" points="-4,4 -4,-207 967,-207 967,4 -4,4"/>
<text text-anchor="start" x="460.51" y="-42.4" font-family="Times-12" font-weight="bold" font-size="14.00">Legend</text>
<polygon fill="#ffffb3" stroke="transparent" points="247.5,-10 247.5,-30 267.5,-30 267.5,-10 247.5,-10"/>
<text text-anchor="start" x="271.13" y="-15.4" font-family="Times-12" font-size="14.00"> &#160;Declarations</text>
<polygon fill="#8dd3c7" stroke="transparent" points="360.5,-10 360.5,-30 380.5,-30 380.5,-10 360.5,-10"/>
<text text-anchor="start" x="384.23" y="-15.4" font-family="Times-12" font-size="14.00"> &#160;Module</text>
<polygon fill="#80b1d3" stroke="transparent" points="446.5,-10 446.5,-30 466.5,-30 466.5,-10 446.5,-10"/>
<text text-anchor="start" x="470.28" y="-15.4" font-family="Times-12" font-size="14.00"> &#160;Bootstrap</text>
<polygon fill="#fdb462" stroke="transparent" points="543.5,-10 543.5,-30 563.5,-30 563.5,-10 543.5,-10"/>
<text text-anchor="start" x="567.17" y="-15.4" font-family="Times-12" font-size="14.00"> &#160;Providers</text>
<polygon fill="#fb8072" stroke="transparent" points="639.5,-10 639.5,-30 659.5,-30 659.5,-10 639.5,-10"/>
<text text-anchor="start" x="663.23" y="-15.4" font-family="Times-12" font-size="14.00"> &#160;Exports</text>
<g id="clust1" class="cluster">
<title>cluster_BeneficiaryModule</title>
<polygon fill="none" stroke="black" stroke-dasharray="1,5" points="8,-70 8,-195 955,-195 955,-70 8,-70"/>
</g>
<g id="clust3" class="cluster">
<title>cluster_BeneficiaryModule_imports</title>
<polygon fill="none" stroke="black" points="845,-78 845,-130 947,-130 947,-78 845,-78"/>
</g>
<g id="clust6" class="cluster">
<title>cluster_BeneficiaryModule_providers</title>
<polygon fill="none" stroke="black" points="16,-78 16,-130 837,-130 837,-78 16,-78"/>
</g>
<!-- StatsModule -->
<g id="node1" class="node">
<title>StatsModule</title>
<polygon fill="#8dd3c7" stroke="black" points="939.27,-122 936.27,-126 915.27,-126 912.27,-122 852.73,-122 852.73,-86 939.27,-86 939.27,-122"/>
<text text-anchor="middle" x="896" y="-99.8" font-family="Times,serif" font-size="14.00">StatsModule</text>
</g>
<!-- BeneficiaryModule -->
<g id="node2" class="node">
<title>BeneficiaryModule</title>
<polygon fill="#8dd3c7" stroke="black" points="603.35,-187 600.35,-191 579.35,-191 576.35,-187 478.65,-187 478.65,-151 603.35,-151 603.35,-187"/>
<text text-anchor="middle" x="541" y="-164.8" font-family="Times,serif" font-size="14.00">BeneficiaryModule</text>
</g>
<!-- StatsModule&#45;&gt;BeneficiaryModule -->
<g id="edge1" class="edge">
<title>StatsModule&#45;&gt;BeneficiaryModule</title>
<path fill="none" stroke="black" d="M896,-122.28C896,-143.32 896,-175 896,-175 896,-175 613.65,-175 613.65,-175"/>
<polygon fill="black" stroke="black" points="613.65,-171.5 603.65,-175 613.65,-178.5 613.65,-171.5"/>
</g>
<!-- BeneficiaryService -->
<g id="node3" class="node">
<title>BeneficiaryService</title>
<ellipse fill="#fdb462" stroke="black" cx="744" cy="-104" rx="85.07" ry="18"/>
<text text-anchor="middle" x="744" y="-99.8" font-family="Times,serif" font-size="14.00">BeneficiaryService</text>
</g>
<!-- BeneficiaryService&#45;&gt;BeneficiaryModule -->
<g id="edge2" class="edge">
<title>BeneficiaryService&#45;&gt;BeneficiaryModule</title>
<path fill="none" stroke="black" d="M744,-122.02C744,-139.37 744,-163 744,-163 744,-163 613.56,-163 613.56,-163"/>
<polygon fill="black" stroke="black" points="613.56,-159.5 603.56,-163 613.56,-166.5 613.56,-159.5"/>
</g>
<!-- BeneficiaryStatService -->
<g id="node4" class="node">
<title>BeneficiaryStatService</title>
<ellipse fill="#fdb462" stroke="black" cx="541" cy="-104" rx="100.11" ry="18"/>
<text text-anchor="middle" x="541" y="-99.8" font-family="Times,serif" font-size="14.00">BeneficiaryStatService</text>
</g>
<!-- BeneficiaryStatService&#45;&gt;BeneficiaryModule -->
<g id="edge3" class="edge">
<title>BeneficiaryStatService&#45;&gt;BeneficiaryModule</title>
<path fill="none" stroke="black" d="M541,-122.11C541,-122.11 541,-140.99 541,-140.99"/>
<polygon fill="black" stroke="black" points="537.5,-140.99 541,-150.99 544.5,-140.99 537.5,-140.99"/>
</g>
<!-- BeneficiaryUtilsService -->
<g id="node5" class="node">
<title>BeneficiaryUtilsService</title>
<ellipse fill="#fdb462" stroke="black" cx="319" cy="-104" rx="103.62" ry="18"/>
<text text-anchor="middle" x="319" y="-99.8" font-family="Times,serif" font-size="14.00">BeneficiaryUtilsService</text>
</g>
<!-- BeneficiaryUtilsService&#45;&gt;BeneficiaryModule -->
<g id="edge4" class="edge">
<title>BeneficiaryUtilsService&#45;&gt;BeneficiaryModule</title>
<path fill="none" stroke="black" d="M319,-122.02C319,-139.37 319,-163 319,-163 319,-163 468.57,-163 468.57,-163"/>
<polygon fill="black" stroke="black" points="468.57,-166.5 478.57,-163 468.57,-159.5 468.57,-166.5"/>
</g>
<!-- VerificationService -->
<g id="node6" class="node">
<title>VerificationService</title>
<ellipse fill="#fdb462" stroke="black" cx="111" cy="-104" rx="86.79" ry="18"/>
<text text-anchor="middle" x="111" y="-99.8" font-family="Times,serif" font-size="14.00">VerificationService</text>
</g>
<!-- VerificationService&#45;&gt;BeneficiaryModule -->
<g id="edge5" class="edge">
<title>VerificationService&#45;&gt;BeneficiaryModule</title>
<path fill="none" stroke="black" d="M111,-122.28C111,-143.32 111,-175 111,-175 111,-175 468.47,-175 468.47,-175"/>
<polygon fill="black" stroke="black" points="468.47,-178.5 478.47,-175 468.47,-171.5 468.47,-178.5"/>
</g>
</g>
</svg>
