<?xml version="1.0" encoding="UTF-8" standalone="no"?>
<!DOCTYPE svg PUBLIC "-//W3C//DTD SVG 1.1//EN"
 "http://www.w3.org/Graphics/SVG/1.1/DTD/svg11.dtd">
<!-- Generated by graphviz version 2.47.0 (20210316.0004)
 -->
<!-- Title: dependencies Pages: 1 -->
<svg width="504pt" height="284pt"
 viewBox="0.00 0.00 504.00 284.00" xmlns="http://www.w3.org/2000/svg" xmlns:xlink="http://www.w3.org/1999/xlink">
<g id="graph0" class="graph" transform="scale(1 1) rotate(0) translate(4 280)">
<title>dependencies</title>
<polygon fill="white" stroke="transparent" points="-4,4 -4,-280 500,-280 500,4 -4,4"/>
<text text-anchor="start" x="227.01" y="-42.4" font-family="Times-12" font-weight="bold" font-size="14.00">Legend</text>
<polygon fill="#ffffb3" stroke="transparent" points="14,-10 14,-30 34,-30 34,-10 14,-10"/>
<text text-anchor="start" x="37.63" y="-15.4" font-family="Times-12" font-size="14.00"> &#160;Declarations</text>
<polygon fill="#8dd3c7" stroke="transparent" points="127,-10 127,-30 147,-30 147,-10 127,-10"/>
<text text-anchor="start" x="150.73" y="-15.4" font-family="Times-12" font-size="14.00"> &#160;Module</text>
<polygon fill="#80b1d3" stroke="transparent" points="213,-10 213,-30 233,-30 233,-10 213,-10"/>
<text text-anchor="start" x="236.78" y="-15.4" font-family="Times-12" font-size="14.00"> &#160;Bootstrap</text>
<polygon fill="#fdb462" stroke="transparent" points="310,-10 310,-30 330,-30 330,-10 310,-10"/>
<text text-anchor="start" x="333.67" y="-15.4" font-family="Times-12" font-size="14.00"> &#160;Providers</text>
<polygon fill="#fb8072" stroke="transparent" points="406,-10 406,-30 426,-30 426,-10 406,-10"/>
<text text-anchor="start" x="429.73" y="-15.4" font-family="Times-12" font-size="14.00"> &#160;Exports</text>
<g id="clust1" class="cluster">
<title>cluster_RequestContextModule</title>
<polygon fill="none" stroke="black" stroke-dasharray="1,5" points="130,-70 130,-268 366,-268 366,-70 130,-70"/>
</g>
<g id="clust6" class="cluster">
<title>cluster_RequestContextModule_providers</title>
<polygon fill="none" stroke="black" points="138,-78 138,-130 358,-130 358,-78 138,-78"/>
</g>
<g id="clust4" class="cluster">
<title>cluster_RequestContextModule_exports</title>
<polygon fill="none" stroke="black" points="165,-208 165,-260 331,-260 331,-208 165,-208"/>
</g>
<!-- RequestContextService  -->
<g id="node1" class="node">
<title>RequestContextService </title>
<polygon fill="#fb8072" stroke="black" points="323.41,-252 172.59,-252 172.59,-216 323.41,-216 323.41,-252"/>
<text text-anchor="middle" x="248" y="-229.8" font-family="Times,serif" font-size="14.00">RequestContextService </text>
</g>
<!-- RequestContextModule -->
<g id="node2" class="node">
<title>RequestContextModule</title>
<polygon fill="#8dd3c7" stroke="black" points="322.48,-187 319.48,-191 298.48,-191 295.48,-187 173.52,-187 173.52,-151 322.48,-151 322.48,-187"/>
<text text-anchor="middle" x="248" y="-164.8" font-family="Times,serif" font-size="14.00">RequestContextModule</text>
</g>
<!-- RequestContextModule&#45;&gt;RequestContextService  -->
<g id="edge1" class="edge">
<title>RequestContextModule&#45;&gt;RequestContextService </title>
<path fill="none" stroke="black" stroke-dasharray="5,2" d="M248,-187.11C248,-187.11 248,-205.99 248,-205.99"/>
<polygon fill="black" stroke="black" points="244.5,-205.99 248,-215.99 251.5,-205.99 244.5,-205.99"/>
</g>
<!-- RequestContextService -->
<g id="node3" class="node">
<title>RequestContextService</title>
<ellipse fill="#fdb462" stroke="black" cx="248" cy="-104" rx="101.86" ry="18"/>
<text text-anchor="middle" x="248" y="-99.8" font-family="Times,serif" font-size="14.00">RequestContextService</text>
</g>
<!-- RequestContextService&#45;&gt;RequestContextModule -->
<g id="edge2" class="edge">
<title>RequestContextService&#45;&gt;RequestContextModule</title>
<path fill="none" stroke="black" d="M248,-122.11C248,-122.11 248,-140.99 248,-140.99"/>
<polygon fill="black" stroke="black" points="244.5,-140.99 248,-150.99 251.5,-140.99 244.5,-140.99"/>
</g>
</g>
</svg>
