<?xml version="1.0" encoding="UTF-8" standalone="no"?>
<!DOCTYPE svg PUBLIC "-//W3C//DTD SVG 1.1//EN"
 "http://www.w3.org/Graphics/SVG/1.1/DTD/svg11.dtd">
<!-- Generated by graphviz version 2.47.0 (20210316.0004)
 -->
<!-- Title: dependencies Pages: 1 -->
<svg width="504pt" height="211pt"
 viewBox="0.00 0.00 504.00 211.00" xmlns="http://www.w3.org/2000/svg" xmlns:xlink="http://www.w3.org/1999/xlink">
<g id="graph0" class="graph" transform="scale(1 1) rotate(0) translate(4 207)">
<title>dependencies</title>
<polygon fill="white" stroke="transparent" points="-4,4 -4,-207 500,-207 500,4 -4,4"/>
<text text-anchor="start" x="227.01" y="-42.4" font-family="Times-12" font-weight="bold" font-size="14.00">Legend</text>
<polygon fill="#ffffb3" stroke="transparent" points="14,-10 14,-30 34,-30 34,-10 14,-10"/>
<text text-anchor="start" x="37.63" y="-15.4" font-family="Times-12" font-size="14.00"> &#160;Declarations</text>
<polygon fill="#8dd3c7" stroke="transparent" points="127,-10 127,-30 147,-30 147,-10 127,-10"/>
<text text-anchor="start" x="150.73" y="-15.4" font-family="Times-12" font-size="14.00"> &#160;Module</text>
<polygon fill="#80b1d3" stroke="transparent" points="213,-10 213,-30 233,-30 233,-10 213,-10"/>
<text text-anchor="start" x="236.78" y="-15.4" font-family="Times-12" font-size="14.00"> &#160;Bootstrap</text>
<polygon fill="#fdb462" stroke="transparent" points="310,-10 310,-30 330,-30 330,-10 310,-10"/>
<text text-anchor="start" x="333.67" y="-15.4" font-family="Times-12" font-size="14.00"> &#160;Providers</text>
<polygon fill="#fb8072" stroke="transparent" points="406,-10 406,-30 426,-30 426,-10 406,-10"/>
<text text-anchor="start" x="429.73" y="-15.4" font-family="Times-12" font-size="14.00"> &#160;Exports</text>
<g id="clust1" class="cluster">
<title>cluster_OfframpModule</title>
<polygon fill="none" stroke="black" stroke-dasharray="1,5" points="69,-70 69,-195 427,-195 427,-70 69,-70"/>
</g>
<g id="clust6" class="cluster">
<title>cluster_OfframpModule_providers</title>
<polygon fill="none" stroke="black" points="77,-78 77,-130 419,-130 419,-78 77,-78"/>
</g>
<!-- KotaniPayService -->
<g id="node1" class="node">
<title>KotaniPayService</title>
<ellipse fill="#fdb462" stroke="black" cx="330" cy="-104" rx="80.52" ry="18"/>
<text text-anchor="middle" x="330" y="-99.8" font-family="Times,serif" font-size="14.00">KotaniPayService</text>
</g>
<!-- OfframpModule -->
<g id="node3" class="node">
<title>OfframpModule</title>
<polygon fill="#8dd3c7" stroke="black" points="297.74,-187 294.74,-191 273.74,-191 270.74,-187 190.26,-187 190.26,-151 297.74,-151 297.74,-187"/>
<text text-anchor="middle" x="244" y="-164.8" font-family="Times,serif" font-size="14.00">OfframpModule</text>
</g>
<!-- KotaniPayService&#45;&gt;OfframpModule -->
<g id="edge1" class="edge">
<title>KotaniPayService&#45;&gt;OfframpModule</title>
<path fill="none" stroke="black" d="M273.56,-117.15C273.56,-117.15 273.56,-140.69 273.56,-140.69"/>
<polygon fill="black" stroke="black" points="270.06,-140.69 273.56,-150.69 277.06,-140.69 270.06,-140.69"/>
</g>
<!-- OfframpService -->
<g id="node2" class="node">
<title>OfframpService</title>
<ellipse fill="#fdb462" stroke="black" cx="158" cy="-104" rx="73.47" ry="18"/>
<text text-anchor="middle" x="158" y="-99.8" font-family="Times,serif" font-size="14.00">OfframpService</text>
</g>
<!-- OfframpService&#45;&gt;OfframpModule -->
<g id="edge2" class="edge">
<title>OfframpService&#45;&gt;OfframpModule</title>
<path fill="none" stroke="black" d="M210.68,-116.53C210.68,-116.53 210.68,-140.85 210.68,-140.85"/>
<polygon fill="black" stroke="black" points="207.18,-140.85 210.68,-150.85 214.18,-140.85 207.18,-140.85"/>
</g>
</g>
</svg>
