<?xml version="1.0" encoding="UTF-8" standalone="no"?>
<!DOCTYPE svg PUBLIC "-//W3C//DTD SVG 1.1//EN"
 "http://www.w3.org/Graphics/SVG/1.1/DTD/svg11.dtd">
<!-- Generated by graphviz version 2.47.0 (20210316.0004)
 -->
<!-- Title: dependencies Pages: 1 -->
<svg width="709pt" height="211pt"
 viewBox="0.00 0.00 709.00 211.00" xmlns="http://www.w3.org/2000/svg" xmlns:xlink="http://www.w3.org/1999/xlink">
<g id="graph0" class="graph" transform="scale(1 1) rotate(0) translate(4 207)">
<title>dependencies</title>
<polygon fill="white" stroke="transparent" points="-4,4 -4,-207 705,-207 705,4 -4,4"/>
<text text-anchor="start" x="329.51" y="-42.4" font-family="Times-12" font-weight="bold" font-size="14.00">Legend</text>
<polygon fill="#ffffb3" stroke="transparent" points="116.5,-10 116.5,-30 136.5,-30 136.5,-10 116.5,-10"/>
<text text-anchor="start" x="140.13" y="-15.4" font-family="Times-12" font-size="14.00"> &#160;Declarations</text>
<polygon fill="#8dd3c7" stroke="transparent" points="229.5,-10 229.5,-30 249.5,-30 249.5,-10 229.5,-10"/>
<text text-anchor="start" x="253.23" y="-15.4" font-family="Times-12" font-size="14.00"> &#160;Module</text>
<polygon fill="#80b1d3" stroke="transparent" points="315.5,-10 315.5,-30 335.5,-30 335.5,-10 315.5,-10"/>
<text text-anchor="start" x="339.28" y="-15.4" font-family="Times-12" font-size="14.00"> &#160;Bootstrap</text>
<polygon fill="#fdb462" stroke="transparent" points="412.5,-10 412.5,-30 432.5,-30 432.5,-10 412.5,-10"/>
<text text-anchor="start" x="436.17" y="-15.4" font-family="Times-12" font-size="14.00"> &#160;Providers</text>
<polygon fill="#fb8072" stroke="transparent" points="508.5,-10 508.5,-30 528.5,-30 528.5,-10 508.5,-10"/>
<text text-anchor="start" x="532.23" y="-15.4" font-family="Times-12" font-size="14.00"> &#160;Exports</text>
<g id="clust1" class="cluster">
<title>cluster_AppModule</title>
<polygon fill="none" stroke="black" stroke-dasharray="1,5" points="8,-70 8,-195 693,-195 693,-70 8,-70"/>
</g>
<g id="clust6" class="cluster">
<title>cluster_AppModule_providers</title>
<polygon fill="none" stroke="black" points="555,-78 555,-130 685,-130 685,-78 555,-78"/>
</g>
<g id="clust3" class="cluster">
<title>cluster_AppModule_imports</title>
<polygon fill="none" stroke="black" points="16,-78 16,-130 547,-130 547,-78 16,-78"/>
</g>
<!-- BeneficiaryModule -->
<g id="node1" class="node">
<title>BeneficiaryModule</title>
<polygon fill="#8dd3c7" stroke="black" points="539.35,-122 536.35,-126 515.35,-126 512.35,-122 414.65,-122 414.65,-86 539.35,-86 539.35,-122"/>
<text text-anchor="middle" x="477" y="-99.8" font-family="Times,serif" font-size="14.00">BeneficiaryModule</text>
</g>
<!-- AppModule -->
<g id="node5" class="node">
<title>AppModule</title>
<polygon fill="#8dd3c7" stroke="black" points="382.66,-187 379.66,-191 358.66,-191 355.66,-187 299.34,-187 299.34,-151 382.66,-151 382.66,-187"/>
<text text-anchor="middle" x="341" y="-164.8" font-family="Times,serif" font-size="14.00">AppModule</text>
</g>
<!-- BeneficiaryModule&#45;&gt;AppModule -->
<g id="edge1" class="edge">
<title>BeneficiaryModule&#45;&gt;AppModule</title>
<path fill="none" stroke="black" d="M477,-122.02C477,-139.37 477,-163 477,-163 477,-163 392.91,-163 392.91,-163"/>
<polygon fill="black" stroke="black" points="392.91,-159.5 382.91,-163 392.91,-166.5 392.91,-159.5"/>
</g>
<!-- ListenersModule -->
<g id="node2" class="node">
<title>ListenersModule</title>
<polygon fill="#8dd3c7" stroke="black" points="396.36,-122 393.36,-126 372.36,-126 369.36,-122 285.64,-122 285.64,-86 396.36,-86 396.36,-122"/>
<text text-anchor="middle" x="341" y="-99.8" font-family="Times,serif" font-size="14.00">ListenersModule</text>
</g>
<!-- ListenersModule&#45;&gt;AppModule -->
<g id="edge2" class="edge">
<title>ListenersModule&#45;&gt;AppModule</title>
<path fill="none" stroke="black" d="M341,-122.11C341,-122.11 341,-140.99 341,-140.99"/>
<polygon fill="black" stroke="black" points="337.5,-140.99 341,-150.99 344.5,-140.99 337.5,-140.99"/>
</g>
<!-- ProcessorsModule -->
<g id="node3" class="node">
<title>ProcessorsModule</title>
<polygon fill="#8dd3c7" stroke="black" points="267.92,-122 264.92,-126 243.92,-126 240.92,-122 148.08,-122 148.08,-86 267.92,-86 267.92,-122"/>
<text text-anchor="middle" x="208" y="-99.8" font-family="Times,serif" font-size="14.00">ProcessorsModule</text>
</g>
<!-- ProcessorsModule&#45;&gt;AppModule -->
<g id="edge3" class="edge">
<title>ProcessorsModule&#45;&gt;AppModule</title>
<path fill="none" stroke="black" d="M208,-122.02C208,-139.37 208,-163 208,-163 208,-163 289.28,-163 289.28,-163"/>
<polygon fill="black" stroke="black" points="289.28,-166.5 299.28,-163 289.28,-159.5 289.28,-166.5"/>
</g>
<!-- VendorsModule -->
<g id="node4" class="node">
<title>VendorsModule</title>
<polygon fill="#8dd3c7" stroke="black" points="130.48,-122 127.48,-126 106.48,-126 103.48,-122 23.52,-122 23.52,-86 130.48,-86 130.48,-122"/>
<text text-anchor="middle" x="77" y="-99.8" font-family="Times,serif" font-size="14.00">VendorsModule</text>
</g>
<!-- VendorsModule&#45;&gt;AppModule -->
<g id="edge4" class="edge">
<title>VendorsModule&#45;&gt;AppModule</title>
<path fill="none" stroke="black" d="M77,-122.28C77,-143.32 77,-175 77,-175 77,-175 289.17,-175 289.17,-175"/>
<polygon fill="black" stroke="black" points="289.17,-178.5 299.17,-175 289.17,-171.5 289.17,-178.5"/>
</g>
<!-- AppService -->
<g id="node6" class="node">
<title>AppService</title>
<ellipse fill="#fdb462" stroke="black" cx="620" cy="-104" rx="56.74" ry="18"/>
<text text-anchor="middle" x="620" y="-99.8" font-family="Times,serif" font-size="14.00">AppService</text>
</g>
<!-- AppService&#45;&gt;AppModule -->
<g id="edge5" class="edge">
<title>AppService&#45;&gt;AppModule</title>
<path fill="none" stroke="black" d="M620,-122.28C620,-143.32 620,-175 620,-175 620,-175 392.77,-175 392.77,-175"/>
<polygon fill="black" stroke="black" points="392.77,-171.5 382.77,-175 392.77,-178.5 392.77,-171.5"/>
</g>
</g>
</svg>
