<?xml version="1.0" encoding="UTF-8" standalone="no"?>
<!DOCTYPE svg PUBLIC "-//W3C//DTD SVG 1.1//EN"
 "http://www.w3.org/Graphics/SVG/1.1/DTD/svg11.dtd">
<!-- Generated by graphviz version 2.47.0 (20210316.0004)
 -->
<!-- Title: dependencies Pages: 1 -->
<svg width="704pt" height="211pt"
 viewBox="0.00 0.00 704.00 211.00" xmlns="http://www.w3.org/2000/svg" xmlns:xlink="http://www.w3.org/1999/xlink">
<g id="graph0" class="graph" transform="scale(1 1) rotate(0) translate(4 207)">
<title>dependencies</title>
<polygon fill="white" stroke="transparent" points="-4,4 -4,-207 700,-207 700,4 -4,4"/>
<text text-anchor="start" x="327.01" y="-42.4" font-family="Times-12" font-weight="bold" font-size="14.00">Legend</text>
<polygon fill="#ffffb3" stroke="transparent" points="114,-10 114,-30 134,-30 134,-10 114,-10"/>
<text text-anchor="start" x="137.63" y="-15.4" font-family="Times-12" font-size="14.00"> &#160;Declarations</text>
<polygon fill="#8dd3c7" stroke="transparent" points="227,-10 227,-30 247,-30 247,-10 227,-10"/>
<text text-anchor="start" x="250.73" y="-15.4" font-family="Times-12" font-size="14.00"> &#160;Module</text>
<polygon fill="#80b1d3" stroke="transparent" points="313,-10 313,-30 333,-30 333,-10 313,-10"/>
<text text-anchor="start" x="336.78" y="-15.4" font-family="Times-12" font-size="14.00"> &#160;Bootstrap</text>
<polygon fill="#fdb462" stroke="transparent" points="410,-10 410,-30 430,-30 430,-10 410,-10"/>
<text text-anchor="start" x="433.67" y="-15.4" font-family="Times-12" font-size="14.00"> &#160;Providers</text>
<polygon fill="#fb8072" stroke="transparent" points="506,-10 506,-30 526,-30 526,-10 506,-10"/>
<text text-anchor="start" x="529.73" y="-15.4" font-family="Times-12" font-size="14.00"> &#160;Exports</text>
<g id="clust1" class="cluster">
<title>cluster_ListenersModule</title>
<polygon fill="none" stroke="black" stroke-dasharray="1,5" points="8,-70 8,-195 688,-195 688,-70 8,-70"/>
</g>
<g id="clust6" class="cluster">
<title>cluster_ListenersModule_providers</title>
<polygon fill="none" stroke="black" points="16,-78 16,-130 680,-130 680,-78 16,-78"/>
</g>
<!-- BeneficiaryStatService -->
<g id="node1" class="node">
<title>BeneficiaryStatService</title>
<ellipse fill="#fdb462" stroke="black" cx="572" cy="-104" rx="100.11" ry="18"/>
<text text-anchor="middle" x="572" y="-99.8" font-family="Times,serif" font-size="14.00">BeneficiaryStatService</text>
</g>
<!-- ListenersModule -->
<g id="node5" class="node">
<title>ListenersModule</title>
<polygon fill="#8dd3c7" stroke="black" points="368.36,-187 365.36,-191 344.36,-191 341.36,-187 257.64,-187 257.64,-151 368.36,-151 368.36,-187"/>
<text text-anchor="middle" x="313" y="-164.8" font-family="Times,serif" font-size="14.00">ListenersModule</text>
</g>
<!-- BeneficiaryStatService&#45;&gt;ListenersModule -->
<g id="edge1" class="edge">
<title>BeneficiaryStatService&#45;&gt;ListenersModule</title>
<path fill="none" stroke="black" d="M572,-122.11C572,-141.34 572,-169 572,-169 572,-169 378.56,-169 378.56,-169"/>
<polygon fill="black" stroke="black" points="378.56,-165.5 368.56,-169 378.56,-172.5 378.56,-165.5"/>
</g>
<!-- EmailService -->
<g id="node2" class="node">
<title>EmailService</title>
<ellipse fill="#fdb462" stroke="black" cx="391" cy="-104" rx="63.12" ry="18"/>
<text text-anchor="middle" x="391" y="-99.8" font-family="Times,serif" font-size="14.00">EmailService</text>
</g>
<!-- EmailService&#45;&gt;ListenersModule -->
<g id="edge2" class="edge">
<title>EmailService&#45;&gt;ListenersModule</title>
<path fill="none" stroke="black" d="M348.19,-117.47C348.19,-117.47 348.19,-140.86 348.19,-140.86"/>
<polygon fill="black" stroke="black" points="344.69,-140.86 348.19,-150.86 351.69,-140.86 344.69,-140.86"/>
</g>
<!-- ListenersService -->
<g id="node3" class="node">
<title>ListenersService</title>
<ellipse fill="#fdb462" stroke="black" cx="235" cy="-104" rx="75.27" ry="18"/>
<text text-anchor="middle" x="235" y="-99.8" font-family="Times,serif" font-size="14.00">ListenersService</text>
</g>
<!-- ListenersService&#45;&gt;ListenersModule -->
<g id="edge3" class="edge">
<title>ListenersService&#45;&gt;ListenersModule</title>
<path fill="none" stroke="black" d="M283.98,-117.78C283.98,-117.78 283.98,-140.55 283.98,-140.55"/>
<polygon fill="black" stroke="black" points="280.48,-140.55 283.98,-150.55 287.48,-140.55 280.48,-140.55"/>
</g>
<!-- StatsService -->
<g id="node4" class="node">
<title>StatsService</title>
<ellipse fill="#fdb462" stroke="black" cx="83" cy="-104" rx="58.54" ry="18"/>
<text text-anchor="middle" x="83" y="-99.8" font-family="Times,serif" font-size="14.00">StatsService</text>
</g>
<!-- StatsService&#45;&gt;ListenersModule -->
<g id="edge4" class="edge">
<title>StatsService&#45;&gt;ListenersModule</title>
<path fill="none" stroke="black" d="M83,-122.11C83,-141.34 83,-169 83,-169 83,-169 247.62,-169 247.62,-169"/>
<polygon fill="black" stroke="black" points="247.62,-172.5 257.62,-169 247.62,-165.5 247.62,-172.5"/>
</g>
</g>
</svg>
