<?xml version="1.0" encoding="UTF-8" standalone="no"?>
<!DOCTYPE svg PUBLIC "-//W3C//DTD SVG 1.1//EN"
 "http://www.w3.org/Graphics/SVG/1.1/DTD/svg11.dtd">
<!-- Generated by graphviz version 2.47.0 (20210316.0004)
 -->
<!-- Title: dependencies Pages: 1 -->
<svg width="3269pt" height="431pt"
 viewBox="0.00 0.00 3269.00 431.00" xmlns="http://www.w3.org/2000/svg" xmlns:xlink="http://www.w3.org/1999/xlink">
<g id="graph0" class="graph" transform="scale(1 1) rotate(0) translate(4 427)">
<title>dependencies</title>
<polygon fill="white" stroke="transparent" points="-4,4 -4,-427 3265,-427 3265,4 -4,4"/>
<text text-anchor="start" x="1609.51" y="-42.4" font-family="Times-12" font-weight="bold" font-size="14.00">Legend</text>
<polygon fill="#ffffb3" stroke="transparent" points="1396.5,-10 1396.5,-30 1416.5,-30 1416.5,-10 1396.5,-10"/>
<text text-anchor="start" x="1420.13" y="-15.4" font-family="Times-12" font-size="14.00"> &#160;Declarations</text>
<polygon fill="#8dd3c7" stroke="transparent" points="1509.5,-10 1509.5,-30 1529.5,-30 1529.5,-10 1509.5,-10"/>
<text text-anchor="start" x="1533.23" y="-15.4" font-family="Times-12" font-size="14.00"> &#160;Module</text>
<polygon fill="#80b1d3" stroke="transparent" points="1595.5,-10 1595.5,-30 1615.5,-30 1615.5,-10 1595.5,-10"/>
<text text-anchor="start" x="1619.28" y="-15.4" font-family="Times-12" font-size="14.00"> &#160;Bootstrap</text>
<polygon fill="#fdb462" stroke="transparent" points="1692.5,-10 1692.5,-30 1712.5,-30 1712.5,-10 1692.5,-10"/>
<text text-anchor="start" x="1716.17" y="-15.4" font-family="Times-12" font-size="14.00"> &#160;Providers</text>
<polygon fill="#fb8072" stroke="transparent" points="1788.5,-10 1788.5,-30 1808.5,-30 1808.5,-10 1788.5,-10"/>
<text text-anchor="start" x="1812.23" y="-15.4" font-family="Times-12" font-size="14.00"> &#160;Exports</text>
<g id="clust1" class="cluster">
<title>cluster_AppModule</title>
<polygon fill="none" stroke="black" stroke-dasharray="1,5" points="846,-146 846,-407 2444,-407 2444,-146 846,-146"/>
</g>
<g id="clust3" class="cluster">
<title>cluster_AppModule_imports</title>
<polygon fill="none" stroke="black" points="992,-154 992,-339 2436,-339 2436,-154 992,-154"/>
</g>
<g id="clust6" class="cluster">
<title>cluster_AppModule_providers</title>
<polygon fill="none" stroke="black" points="854,-287 854,-339 984,-339 984,-287 854,-287"/>
</g>
<g id="clust7" class="cluster">
<title>cluster_AppUsersModule</title>
<polygon fill="none" stroke="black" stroke-dasharray="1,5" points="746,-70 746,-138 924,-138 924,-70 746,-70"/>
</g>
<g id="clust12" class="cluster">
<title>cluster_AppUsersModule_providers</title>
<polygon fill="none" stroke="black" points="754,-78 754,-130 916,-130 916,-78 754,-78"/>
</g>
<g id="clust13" class="cluster">
<title>cluster_BeneficiaryModule</title>
<polygon fill="none" stroke="black" stroke-dasharray="1,5" points="2641,-70 2641,-138 3253,-138 3253,-70 2641,-70"/>
</g>
<g id="clust18" class="cluster">
<title>cluster_BeneficiaryModule_providers</title>
<polygon fill="none" stroke="black" points="2649,-78 2649,-130 3245,-130 3245,-78 2649,-78"/>
</g>
<g id="clust19" class="cluster">
<title>cluster_GrievanceModule</title>
<polygon fill="none" stroke="black" stroke-dasharray="1,5" points="932,-70 932,-138 1124,-138 1124,-70 932,-70"/>
</g>
<g id="clust24" class="cluster">
<title>cluster_GrievanceModule_providers</title>
<polygon fill="none" stroke="black" points="940,-78 940,-130 1116,-130 1116,-78 940,-78"/>
</g>
<g id="clust25" class="cluster">
<title>cluster_ListenersModule</title>
<polygon fill="none" stroke="black" stroke-dasharray="1,5" points="1132,-70 1132,-138 2113,-138 2113,-70 1132,-70"/>
</g>
<g id="clust30" class="cluster">
<title>cluster_ListenersModule_providers</title>
<polygon fill="none" stroke="black" points="1140,-78 1140,-130 2105,-130 2105,-78 1140,-78"/>
</g>
<g id="clust37" class="cluster">
<title>cluster_ProcessorsModule</title>
<polygon fill="none" stroke="black" stroke-dasharray="1,5" points="2452,-347 2452,-415 2624,-415 2624,-347 2452,-347"/>
</g>
<g id="clust40" class="cluster">
<title>cluster_ProcessorsModule_exports</title>
<polygon fill="none" stroke="black" points="2460,-355 2460,-407 2616,-407 2616,-355 2460,-355"/>
</g>
<g id="clust43" class="cluster">
<title>cluster_ProjectModule</title>
<polygon fill="none" stroke="black" stroke-dasharray="1,5" points="2121,-70 2121,-138 2287,-138 2287,-70 2121,-70"/>
</g>
<g id="clust48" class="cluster">
<title>cluster_ProjectModule_providers</title>
<polygon fill="none" stroke="black" points="2129,-78 2129,-130 2279,-130 2279,-78 2129,-78"/>
</g>
<g id="clust49" class="cluster">
<title>cluster_QueueModule</title>
<polygon fill="none" stroke="black" stroke-dasharray="1,5" points="8,-211 8,-279 292,-279 292,-211 8,-211"/>
</g>
<g id="clust52" class="cluster">
<title>cluster_QueueModule_exports</title>
<polygon fill="none" stroke="black" points="170,-219 170,-271 284,-271 284,-219 170,-219"/>
</g>
<g id="clust54" class="cluster">
<title>cluster_QueueModule_providers</title>
<polygon fill="none" stroke="black" points="16,-219 16,-271 162,-271 162,-219 16,-219"/>
</g>
<g id="clust55" class="cluster">
<title>cluster_RequestContextModule</title>
<polygon fill="none" stroke="black" stroke-dasharray="1,5" points="300,-211 300,-279 710,-279 710,-211 300,-211"/>
</g>
<g id="clust58" class="cluster">
<title>cluster_RequestContextModule_exports</title>
<polygon fill="none" stroke="black" points="536,-219 536,-271 702,-271 702,-219 536,-219"/>
</g>
<g id="clust60" class="cluster">
<title>cluster_RequestContextModule_providers</title>
<polygon fill="none" stroke="black" points="308,-219 308,-271 528,-271 528,-219 308,-219"/>
</g>
<g id="clust61" class="cluster">
<title>cluster_StatsModule</title>
<polygon fill="none" stroke="black" stroke-dasharray="1,5" points="718,-211 718,-279 838,-279 838,-211 718,-211"/>
</g>
<g id="clust64" class="cluster">
<title>cluster_StatsModule_exports</title>
<polygon fill="none" stroke="black" points="726,-219 726,-271 830,-271 830,-219 726,-219"/>
</g>
<g id="clust67" class="cluster">
<title>cluster_TokenModule</title>
<polygon fill="none" stroke="black" stroke-dasharray="1,5" points="2295,-70 2295,-138 2457,-138 2457,-70 2295,-70"/>
</g>
<g id="clust72" class="cluster">
<title>cluster_TokenModule_providers</title>
<polygon fill="none" stroke="black" points="2303,-78 2303,-130 2449,-130 2449,-78 2303,-78"/>
</g>
<g id="clust73" class="cluster">
<title>cluster_UploadModule</title>
<polygon fill="none" stroke="black" stroke-dasharray="1,5" points="2465,-70 2465,-138 2633,-138 2633,-70 2465,-70"/>
</g>
<g id="clust78" class="cluster">
<title>cluster_UploadModule_providers</title>
<polygon fill="none" stroke="black" points="2473,-78 2473,-130 2625,-130 2625,-78 2473,-78"/>
</g>
<!-- BeneficiaryModule -->
<g id="node1" class="node">
<title>BeneficiaryModule</title>
<polygon fill="#8dd3c7" stroke="black" points="2215.35,-263 2212.35,-267 2191.35,-267 2188.35,-263 2090.65,-263 2090.65,-227 2215.35,-227 2215.35,-263"/>
<text text-anchor="middle" x="2153" y="-240.8" font-family="Times,serif" font-size="14.00">BeneficiaryModule</text>
</g>
<!-- ProcessorsModule -->
<g id="node3" class="node">
<title>ProcessorsModule</title>
<polygon fill="#8dd3c7" stroke="black" points="2100.92,-331 2097.92,-335 2076.92,-335 2073.92,-331 1981.08,-331 1981.08,-295 2100.92,-295 2100.92,-331"/>
<text text-anchor="middle" x="2041" y="-308.8" font-family="Times,serif" font-size="14.00">ProcessorsModule</text>
</g>
<!-- BeneficiaryModule&#45;&gt;ProcessorsModule -->
<g id="edge34" class="edge">
<title>BeneficiaryModule&#45;&gt;ProcessorsModule</title>
<path fill="none" stroke="black" d="M2095.64,-263.22C2095.64,-263.22 2095.64,-284.73 2095.64,-284.73"/>
<polygon fill="black" stroke="black" points="2092.14,-284.73 2095.64,-294.73 2099.14,-284.73 2092.14,-284.73"/>
</g>
<!-- AppModule -->
<g id="node5" class="node">
<title>AppModule</title>
<polygon fill="#8dd3c7" stroke="black" points="1837.66,-399 1834.66,-403 1813.66,-403 1810.66,-399 1754.34,-399 1754.34,-363 1837.66,-363 1837.66,-399"/>
<text text-anchor="middle" x="1796" y="-376.8" font-family="Times,serif" font-size="14.00">AppModule</text>
</g>
<!-- BeneficiaryModule&#45;&gt;AppModule -->
<g id="edge1" class="edge">
<title>BeneficiaryModule&#45;&gt;AppModule</title>
<path fill="none" stroke="black" d="M2090.5,-239C1994.25,-239 1820.73,-239 1820.73,-239 1820.73,-239 1820.73,-352.73 1820.73,-352.73"/>
<polygon fill="black" stroke="black" points="1817.23,-352.73 1820.73,-362.73 1824.23,-352.73 1817.23,-352.73"/>
</g>
<!-- BeneficiaryModule&#45;&gt;AppModule -->
<g id="edge7" class="edge">
<title>BeneficiaryModule&#45;&gt;AppModule</title>
<path fill="none" stroke="black" d="M2090.53,-251C1995.37,-251 1825.01,-251 1825.01,-251 1825.01,-251 1825.01,-352.92 1825.01,-352.92"/>
<polygon fill="black" stroke="black" points="1821.51,-352.92 1825.01,-362.92 1828.51,-352.92 1821.51,-352.92"/>
</g>
<!-- ListenersModule -->
<g id="node2" class="node">
<title>ListenersModule</title>
<polygon fill="#8dd3c7" stroke="black" points="1785.36,-198 1782.36,-202 1761.36,-202 1758.36,-198 1674.64,-198 1674.64,-162 1785.36,-162 1785.36,-198"/>
<text text-anchor="middle" x="1730" y="-175.8" font-family="Times,serif" font-size="14.00">ListenersModule</text>
</g>
<!-- ListenersModule&#45;&gt;AppModule -->
<g id="edge2" class="edge">
<title>ListenersModule&#45;&gt;AppModule</title>
<path fill="none" stroke="black" d="M1772.93,-198.19C1772.93,-198.19 1772.93,-352.99 1772.93,-352.99"/>
<polygon fill="black" stroke="black" points="1769.43,-352.99 1772.93,-362.99 1776.43,-352.99 1769.43,-352.99"/>
</g>
<!-- ListenersModule&#45;&gt;AppModule -->
<g id="edge9" class="edge">
<title>ListenersModule&#45;&gt;AppModule</title>
<path fill="none" stroke="black" d="M1779.18,-198.19C1779.18,-198.19 1779.18,-352.99 1779.18,-352.99"/>
<polygon fill="black" stroke="black" points="1775.68,-352.99 1779.18,-362.99 1782.68,-352.99 1775.68,-352.99"/>
</g>
<!-- ProcessorsModule&#45;&gt;AppModule -->
<g id="edge3" class="edge">
<title>ProcessorsModule&#45;&gt;AppModule</title>
<path fill="none" stroke="black" d="M1981.28,-324C1919.99,-324 1833.55,-324 1833.55,-324 1833.55,-324 1833.55,-352.96 1833.55,-352.96"/>
<polygon fill="black" stroke="black" points="1830.05,-352.96 1833.55,-362.96 1837.05,-352.96 1830.05,-352.96"/>
</g>
<!-- ProcessorsModule&#45;&gt;AppModule -->
<g id="edge11" class="edge">
<title>ProcessorsModule&#45;&gt;AppModule</title>
<path fill="none" stroke="black" d="M1981.18,-317C1918.57,-317 1829.28,-317 1829.28,-317 1829.28,-317 1829.28,-352.83 1829.28,-352.83"/>
<polygon fill="black" stroke="black" points="1825.78,-352.83 1829.28,-362.83 1832.78,-352.83 1825.78,-352.83"/>
</g>
<!-- BeneficiaryProcessor  -->
<g id="node27" class="node">
<title>BeneficiaryProcessor </title>
<polygon fill="#fb8072" stroke="black" points="2607.72,-399 2468.28,-399 2468.28,-363 2607.72,-363 2607.72,-399"/>
<text text-anchor="middle" x="2538" y="-376.8" font-family="Times,serif" font-size="14.00">BeneficiaryProcessor </text>
</g>
<!-- ProcessorsModule&#45;&gt;BeneficiaryProcessor  -->
<g id="edge35" class="edge">
<title>ProcessorsModule&#45;&gt;BeneficiaryProcessor </title>
<path fill="none" stroke="black" stroke-dasharray="5,2" d="M2100.82,-313C2219.74,-313 2474.49,-313 2474.49,-313 2474.49,-313 2474.49,-352.78 2474.49,-352.78"/>
<polygon fill="black" stroke="black" points="2470.99,-352.78 2474.49,-362.78 2477.99,-352.78 2470.99,-352.78"/>
</g>
<!-- VendorsModule -->
<g id="node4" class="node">
<title>VendorsModule</title>
<polygon fill="#8dd3c7" stroke="black" points="1388.48,-198 1385.48,-202 1364.48,-202 1361.48,-198 1281.52,-198 1281.52,-162 1388.48,-162 1388.48,-198"/>
<text text-anchor="middle" x="1335" y="-175.8" font-family="Times,serif" font-size="14.00">VendorsModule</text>
</g>
<!-- VendorsModule&#45;&gt;AppModule -->
<g id="edge4" class="edge">
<title>VendorsModule&#45;&gt;AppModule</title>
<path fill="none" stroke="black" d="M1335,-198.19C1335,-247.67 1335,-381 1335,-381 1335,-381 1744.28,-381 1744.28,-381"/>
<polygon fill="black" stroke="black" points="1744.28,-384.5 1754.28,-381 1744.28,-377.5 1744.28,-384.5"/>
</g>
<!-- AppService -->
<g id="node6" class="node">
<title>AppService</title>
<ellipse fill="#fdb462" stroke="black" cx="919" cy="-313" rx="56.74" ry="18"/>
<text text-anchor="middle" x="919" y="-308.8" font-family="Times,serif" font-size="14.00">AppService</text>
</g>
<!-- AppService&#45;&gt;AppModule -->
<g id="edge5" class="edge">
<title>AppService&#45;&gt;AppModule</title>
<path fill="none" stroke="black" d="M974.86,-310C1162.79,-310 1760.42,-310 1760.42,-310 1760.42,-310 1760.42,-352.72 1760.42,-352.72"/>
<polygon fill="black" stroke="black" points="1756.92,-352.72 1760.42,-362.72 1763.92,-352.72 1756.92,-352.72"/>
</g>
<!-- AppService&#45;&gt;AppModule -->
<g id="edge18" class="edge">
<title>AppService&#45;&gt;AppModule</title>
<path fill="none" stroke="black" d="M966.09,-303C1144.2,-303 1766.68,-303 1766.68,-303 1766.68,-303 1766.68,-352.91 1766.68,-352.91"/>
<polygon fill="black" stroke="black" points="1763.18,-352.91 1766.68,-362.91 1770.18,-352.91 1763.18,-352.91"/>
</g>
<!-- AppUsersModule -->
<g id="node7" class="node">
<title>AppUsersModule</title>
<polygon fill="#8dd3c7" stroke="black" points="1521.53,-198 1518.53,-202 1497.53,-202 1494.53,-198 1406.47,-198 1406.47,-162 1521.53,-162 1521.53,-198"/>
<text text-anchor="middle" x="1464" y="-175.8" font-family="Times,serif" font-size="14.00">AppUsersModule</text>
</g>
<!-- AppUsersModule&#45;&gt;AppModule -->
<g id="edge6" class="edge">
<title>AppUsersModule&#45;&gt;AppModule</title>
<path fill="none" stroke="black" d="M1464,-198.35C1464,-246.89 1464,-375 1464,-375 1464,-375 1744.29,-375 1744.29,-375"/>
<polygon fill="black" stroke="black" points="1744.29,-378.5 1754.29,-375 1744.29,-371.5 1744.29,-378.5"/>
</g>
<!-- GrievanceModule -->
<g id="node8" class="node">
<title>GrievanceModule</title>
<polygon fill="#8dd3c7" stroke="black" points="1656.57,-198 1653.57,-202 1632.57,-202 1629.57,-198 1539.43,-198 1539.43,-162 1656.57,-162 1656.57,-198"/>
<text text-anchor="middle" x="1598" y="-175.8" font-family="Times,serif" font-size="14.00">GrievanceModule</text>
</g>
<!-- GrievanceModule&#45;&gt;AppModule -->
<g id="edge8" class="edge">
<title>GrievanceModule&#45;&gt;AppModule</title>
<path fill="none" stroke="black" d="M1598,-198.12C1598,-245.43 1598,-369 1598,-369 1598,-369 1744.01,-369 1744.01,-369"/>
<polygon fill="black" stroke="black" points="1744.01,-372.5 1754.01,-369 1744.01,-365.5 1744.01,-372.5"/>
</g>
<!-- MetaTxnProcessorsModule -->
<g id="node9" class="node">
<title>MetaTxnProcessorsModule</title>
<polygon fill="#8dd3c7" stroke="black" points="1974.23,-198 1971.23,-202 1950.23,-202 1947.23,-198 1803.77,-198 1803.77,-162 1974.23,-162 1974.23,-198"/>
<text text-anchor="middle" x="1889" y="-175.8" font-family="Times,serif" font-size="14.00">MetaTxnProcessorsModule</text>
</g>
<!-- MetaTxnProcessorsModule&#45;&gt;AppModule -->
<g id="edge10" class="edge">
<title>MetaTxnProcessorsModule&#45;&gt;AppModule</title>
<path fill="none" stroke="black" d="M1807.91,-198.19C1807.91,-198.19 1807.91,-352.99 1807.91,-352.99"/>
<polygon fill="black" stroke="black" points="1804.41,-352.99 1807.91,-362.99 1811.41,-352.99 1804.41,-352.99"/>
</g>
<!-- ProjectModule -->
<g id="node10" class="node">
<title>ProjectModule</title>
<polygon fill="#8dd3c7" stroke="black" points="2091.7,-198 2088.7,-202 2067.7,-202 2064.7,-198 1992.3,-198 1992.3,-162 2091.7,-162 2091.7,-198"/>
<text text-anchor="middle" x="2042" y="-175.8" font-family="Times,serif" font-size="14.00">ProjectModule</text>
</g>
<!-- ProjectModule&#45;&gt;AppModule -->
<g id="edge12" class="edge">
<title>ProjectModule&#45;&gt;AppModule</title>
<path fill="none" stroke="black" d="M2041.49,-198.11C2041.49,-207.9 2041.49,-218 2041.49,-218 2041.49,-218 1812.18,-218 1812.18,-218 1812.18,-218 1812.18,-352.93 1812.18,-352.93"/>
<polygon fill="black" stroke="black" points="1808.68,-352.93 1812.18,-362.93 1815.68,-352.93 1808.68,-352.93"/>
</g>
<!-- QueueModule -->
<g id="node11" class="node">
<title>QueueModule</title>
<polygon fill="#8dd3c7" stroke="black" points="1096.09,-198 1093.09,-202 1072.09,-202 1069.09,-198 999.91,-198 999.91,-162 1096.09,-162 1096.09,-198"/>
<text text-anchor="middle" x="1048" y="-175.8" font-family="Times,serif" font-size="14.00">QueueModule</text>
</g>
<!-- QueueModule&#45;&gt;AppModule -->
<g id="edge13" class="edge">
<title>QueueModule&#45;&gt;AppModule</title>
<path fill="none" stroke="black" d="M1048,-198.16C1048,-249.67 1048,-393 1048,-393 1048,-393 1744.18,-393 1744.18,-393"/>
<polygon fill="black" stroke="black" points="1744.18,-396.5 1754.18,-393 1744.18,-389.5 1744.18,-396.5"/>
</g>
<!-- QueueService  -->
<g id="node29" class="node">
<title>QueueService </title>
<polygon fill="#fb8072" stroke="black" points="276.01,-263 177.99,-263 177.99,-227 276.01,-227 276.01,-263"/>
<text text-anchor="middle" x="227" y="-240.8" font-family="Times,serif" font-size="14.00">QueueService </text>
</g>
<!-- QueueModule&#45;&gt;QueueService  -->
<g id="edge37" class="edge">
<title>QueueModule&#45;&gt;QueueService </title>
<path fill="none" stroke="black" stroke-dasharray="5,2" d="M999.71,-186C823.72,-186 227,-186 227,-186 227,-186 227,-216.98 227,-216.98"/>
<polygon fill="black" stroke="black" points="223.5,-216.98 227,-226.98 230.5,-216.98 223.5,-216.98"/>
</g>
<!-- RequestContextModule -->
<g id="node12" class="node">
<title>RequestContextModule</title>
<polygon fill="#8dd3c7" stroke="black" points="1263.48,-198 1260.48,-202 1239.48,-202 1236.48,-198 1114.52,-198 1114.52,-162 1263.48,-162 1263.48,-198"/>
<text text-anchor="middle" x="1189" y="-175.8" font-family="Times,serif" font-size="14.00">RequestContextModule</text>
</g>
<!-- RequestContextModule&#45;&gt;AppModule -->
<g id="edge14" class="edge">
<title>RequestContextModule&#45;&gt;AppModule</title>
<path fill="none" stroke="black" d="M1226.25,-198.01C1226.25,-248.37 1226.25,-387 1226.25,-387 1226.25,-387 1744.1,-387 1744.1,-387"/>
<polygon fill="black" stroke="black" points="1744.1,-390.5 1754.1,-387 1744.1,-383.5 1744.1,-390.5"/>
</g>
<!-- RequestContextService  -->
<g id="node31" class="node">
<title>RequestContextService </title>
<polygon fill="#fb8072" stroke="black" points="694.41,-263 543.59,-263 543.59,-227 694.41,-227 694.41,-263"/>
<text text-anchor="middle" x="619" y="-240.8" font-family="Times,serif" font-size="14.00">RequestContextService </text>
</g>
<!-- RequestContextModule&#45;&gt;RequestContextService  -->
<g id="edge39" class="edge">
<title>RequestContextModule&#45;&gt;RequestContextService </title>
<path fill="none" stroke="black" stroke-dasharray="5,2" d="M1189,-198.21C1189,-203.55 1189,-208 1189,-208 1189,-208 619,-208 619,-208 619,-208 619,-216.93 619,-216.93"/>
<polygon fill="black" stroke="black" points="615.5,-216.93 619,-226.93 622.5,-216.93 615.5,-216.93"/>
</g>
<!-- StatsModule -->
<g id="node13" class="node">
<title>StatsModule</title>
<polygon fill="#8dd3c7" stroke="black" points="2196.27,-198 2193.27,-202 2172.27,-202 2169.27,-198 2109.73,-198 2109.73,-162 2196.27,-162 2196.27,-198"/>
<text text-anchor="middle" x="2153" y="-175.8" font-family="Times,serif" font-size="14.00">StatsModule</text>
</g>
<!-- StatsModule&#45;&gt;BeneficiaryModule -->
<g id="edge20" class="edge">
<title>StatsModule&#45;&gt;BeneficiaryModule</title>
<path fill="none" stroke="black" d="M2174.69,-198.11C2174.69,-198.11 2174.69,-216.99 2174.69,-216.99"/>
<polygon fill="black" stroke="black" points="2171.19,-216.99 2174.69,-226.99 2178.19,-216.99 2171.19,-216.99"/>
</g>
<!-- StatsModule&#45;&gt;AppModule -->
<g id="edge15" class="edge">
<title>StatsModule&#45;&gt;AppModule</title>
<path fill="none" stroke="black" d="M2153,-198.49C2153,-210.14 2153,-223 2153,-223 2153,-223 1816.46,-223 1816.46,-223 1816.46,-223 1816.46,-352.88 1816.46,-352.88"/>
<polygon fill="black" stroke="black" points="1812.96,-352.88 1816.46,-362.88 1819.96,-352.88 1812.96,-352.88"/>
</g>
<!-- StatsService  -->
<g id="node33" class="node">
<title>StatsService </title>
<polygon fill="#fb8072" stroke="black" points="822.2,-263 733.8,-263 733.8,-227 822.2,-227 822.2,-263"/>
<text text-anchor="middle" x="778" y="-240.8" font-family="Times,serif" font-size="14.00">StatsService </text>
</g>
<!-- StatsModule&#45;&gt;StatsService  -->
<g id="edge41" class="edge">
<title>StatsModule&#45;&gt;StatsService </title>
<path fill="none" stroke="black" stroke-dasharray="5,2" d="M2131.31,-198.04C2131.31,-205.75 2131.31,-213 2131.31,-213 2131.31,-213 792.32,-213 792.32,-213 792.32,-213 792.32,-216.76 792.32,-216.76"/>
<polygon fill="black" stroke="black" points="788.82,-216.76 792.32,-226.76 795.82,-216.76 788.82,-216.76"/>
</g>
<!-- TokenModule -->
<g id="node14" class="node">
<title>TokenModule</title>
<polygon fill="#8dd3c7" stroke="black" points="2309.82,-198 2306.82,-202 2285.82,-202 2282.82,-198 2214.18,-198 2214.18,-162 2309.82,-162 2309.82,-198"/>
<text text-anchor="middle" x="2262" y="-175.8" font-family="Times,serif" font-size="14.00">TokenModule</text>
</g>
<!-- TokenModule&#45;&gt;AppModule -->
<g id="edge16" class="edge">
<title>TokenModule&#45;&gt;AppModule</title>
<path fill="none" stroke="black" d="M2262.54,-198.35C2262.54,-246.89 2262.54,-375 2262.54,-375 2262.54,-375 1847.81,-375 1847.81,-375"/>
<polygon fill="black" stroke="black" points="1847.81,-371.5 1837.81,-375 1847.81,-378.5 1847.81,-371.5"/>
</g>
<!-- UploadModule -->
<g id="node15" class="node">
<title>UploadModule</title>
<polygon fill="#8dd3c7" stroke="black" points="2428.26,-198 2425.26,-202 2404.26,-202 2401.26,-198 2327.74,-198 2327.74,-162 2428.26,-162 2428.26,-198"/>
<text text-anchor="middle" x="2378" y="-175.8" font-family="Times,serif" font-size="14.00">UploadModule</text>
</g>
<!-- UploadModule&#45;&gt;AppModule -->
<g id="edge17" class="edge">
<title>UploadModule&#45;&gt;AppModule</title>
<path fill="none" stroke="black" d="M2378,-198.01C2378,-248.37 2378,-387 2378,-387 2378,-387 1847.86,-387 1847.86,-387"/>
<polygon fill="black" stroke="black" points="1847.86,-383.5 1837.86,-387 1847.86,-390.5 1847.86,-383.5"/>
</g>
<!-- VendorsService -->
<g id="node16" class="node">
<title>VendorsService</title>
<ellipse fill="#fdb462" stroke="black" cx="835" cy="-104" rx="72.91" ry="18"/>
<text text-anchor="middle" x="835" y="-99.8" font-family="Times,serif" font-size="14.00">VendorsService</text>
</g>
<!-- VendorsService&#45;&gt;VendorsModule -->
<g id="edge45" class="edge">
<title>VendorsService&#45;&gt;VendorsModule</title>
<path fill="none" stroke="black" d="M877.49,-118.73C877.49,-131.86 877.49,-149 877.49,-149 877.49,-149 1287.14,-149 1287.14,-149 1287.14,-149 1287.14,-151.97 1287.14,-151.97"/>
<polygon fill="black" stroke="black" points="1283.64,-151.97 1287.14,-161.97 1290.64,-151.97 1283.64,-151.97"/>
</g>
<!-- VendorsService&#45;&gt;AppUsersModule -->
<g id="edge19" class="edge">
<title>VendorsService&#45;&gt;AppUsersModule</title>
<path fill="none" stroke="black" d="M892.6,-115.04C892.6,-127.48 892.6,-146 892.6,-146 892.6,-146 1421.52,-146 1421.52,-146 1421.52,-146 1421.52,-151.81 1421.52,-151.81"/>
<polygon fill="black" stroke="black" points="1418.02,-151.81 1421.52,-161.81 1425.02,-151.81 1418.02,-151.81"/>
</g>
<!-- BeneficiaryService -->
<g id="node17" class="node">
<title>BeneficiaryService</title>
<ellipse fill="#fdb462" stroke="black" cx="2960" cy="-104" rx="85.07" ry="18"/>
<text text-anchor="middle" x="2960" y="-99.8" font-family="Times,serif" font-size="14.00">BeneficiaryService</text>
</g>
<!-- BeneficiaryService&#45;&gt;BeneficiaryModule -->
<g id="edge21" class="edge">
<title>BeneficiaryService&#45;&gt;BeneficiaryModule</title>
<path fill="none" stroke="black" d="M2960,-122.14C2960,-160.23 2960,-245 2960,-245 2960,-245 2225.65,-245 2225.65,-245"/>
<polygon fill="black" stroke="black" points="2225.65,-241.5 2215.65,-245 2225.65,-248.5 2225.65,-241.5"/>
</g>
<!-- BeneficiaryStatService -->
<g id="node18" class="node">
<title>BeneficiaryStatService</title>
<ellipse fill="#fdb462" stroke="black" cx="2757" cy="-104" rx="100.11" ry="18"/>
<text text-anchor="middle" x="2757" y="-99.8" font-family="Times,serif" font-size="14.00">BeneficiaryStatService</text>
</g>
<!-- BeneficiaryStatService&#45;&gt;BeneficiaryModule -->
<g id="edge22" class="edge">
<title>BeneficiaryStatService&#45;&gt;BeneficiaryModule</title>
<path fill="none" stroke="black" d="M2790.35,-120.99C2790.35,-156.64 2790.35,-236 2790.35,-236 2790.35,-236 2225.56,-236 2225.56,-236"/>
<polygon fill="black" stroke="black" points="2225.56,-232.5 2215.56,-236 2225.56,-239.5 2225.56,-232.5"/>
</g>
<!-- BeneficiaryStatService&#45;&gt;ListenersModule -->
<g id="edge25" class="edge">
<title>BeneficiaryStatService&#45;&gt;ListenersModule</title>
<path fill="none" stroke="black" d="M2723.65,-121.1C2723.65,-137.25 2723.65,-159 2723.65,-159 2723.65,-159 1774.35,-159 1774.35,-159 1774.35,-159 1774.35,-159.29 1774.35,-159.29"/>
<polygon fill="black" stroke="black" points="1770.85,-151.92 1774.35,-161.92 1777.85,-151.92 1770.85,-151.92"/>
</g>
<!-- VerificationService -->
<g id="node19" class="node">
<title>VerificationService</title>
<ellipse fill="#fdb462" stroke="black" cx="3150" cy="-104" rx="86.79" ry="18"/>
<text text-anchor="middle" x="3150" y="-99.8" font-family="Times,serif" font-size="14.00">VerificationService</text>
</g>
<!-- VerificationService&#45;&gt;BeneficiaryModule -->
<g id="edge23" class="edge">
<title>VerificationService&#45;&gt;BeneficiaryModule</title>
<path fill="none" stroke="black" d="M3150,-122.09C3150,-161.99 3150,-254 3150,-254 3150,-254 2225.37,-254 2225.37,-254"/>
<polygon fill="black" stroke="black" points="2225.37,-250.5 2215.37,-254 2225.37,-257.5 2225.37,-250.5"/>
</g>
<!-- GrievanceService -->
<g id="node20" class="node">
<title>GrievanceService</title>
<ellipse fill="#fdb462" stroke="black" cx="1028" cy="-104" rx="79.83" ry="18"/>
<text text-anchor="middle" x="1028" y="-99.8" font-family="Times,serif" font-size="14.00">GrievanceService</text>
</g>
<!-- GrievanceService&#45;&gt;GrievanceModule -->
<g id="edge24" class="edge">
<title>GrievanceService&#45;&gt;GrievanceModule</title>
<path fill="none" stroke="black" d="M1101.85,-110.97C1101.85,-121.94 1101.85,-142 1101.85,-142 1101.85,-142 1557.36,-142 1557.36,-142 1557.36,-142 1557.36,-151.89 1557.36,-151.89"/>
<polygon fill="black" stroke="black" points="1553.86,-151.89 1557.36,-161.89 1560.86,-151.89 1553.86,-151.89"/>
</g>
<!-- EmailService -->
<g id="node21" class="node">
<title>EmailService</title>
<ellipse fill="#fdb462" stroke="black" cx="1548" cy="-104" rx="63.12" ry="18"/>
<text text-anchor="middle" x="1548" y="-99.8" font-family="Times,serif" font-size="14.00">EmailService</text>
</g>
<!-- EmailService&#45;&gt;ListenersModule -->
<g id="edge26" class="edge">
<title>EmailService&#45;&gt;ListenersModule</title>
<path fill="none" stroke="black" d="M1575.26,-120.26C1575.26,-125.03 1575.26,-129 1575.26,-129 1575.26,-129 1718.91,-129 1718.91,-129 1718.91,-129 1718.91,-151.88 1718.91,-151.88"/>
<polygon fill="black" stroke="black" points="1715.41,-151.88 1718.91,-161.88 1722.41,-151.88 1715.41,-151.88"/>
</g>
<!-- EmailService&#45;&gt;ListenersModule -->
<g id="edge30" class="edge">
<title>EmailService&#45;&gt;ListenersModule</title>
<path fill="none" stroke="black" d="M1593.16,-116.8C1593.16,-121.64 1593.16,-126 1593.16,-126 1593.16,-126 1730,-126 1730,-126 1730,-126 1730,-151.72 1730,-151.72"/>
<polygon fill="black" stroke="black" points="1726.5,-151.72 1730,-161.72 1733.5,-151.72 1726.5,-151.72"/>
</g>
<!-- ListenersService -->
<g id="node22" class="node">
<title>ListenersService</title>
<ellipse fill="#fdb462" stroke="black" cx="1392" cy="-104" rx="75.27" ry="18"/>
<text text-anchor="middle" x="1392" y="-99.8" font-family="Times,serif" font-size="14.00">ListenersService</text>
</g>
<!-- ListenersService&#45;&gt;ListenersModule -->
<g id="edge27" class="edge">
<title>ListenersService&#45;&gt;ListenersModule</title>
<path fill="none" stroke="black" d="M1436.81,-118.5C1436.81,-126.97 1436.81,-136 1436.81,-136 1436.81,-136 1696.74,-136 1696.74,-136 1696.74,-136 1696.74,-151.85 1696.74,-151.85"/>
<polygon fill="black" stroke="black" points="1693.24,-151.85 1696.74,-161.85 1700.24,-151.85 1693.24,-151.85"/>
</g>
<!-- ListenersService&#45;&gt;ListenersModule -->
<g id="edge31" class="edge">
<title>ListenersService&#45;&gt;ListenersModule</title>
<path fill="none" stroke="black" d="M1452.1,-115.07C1452.1,-122.89 1452.1,-132 1452.1,-132 1452.1,-132 1707.83,-132 1707.83,-132 1707.83,-132 1707.83,-151.85 1707.83,-151.85"/>
<polygon fill="black" stroke="black" points="1704.33,-151.85 1707.83,-161.85 1711.33,-151.85 1704.33,-151.85"/>
</g>
<!-- StatsService -->
<g id="node23" class="node">
<title>StatsService</title>
<ellipse fill="#fdb462" stroke="black" cx="2038" cy="-104" rx="58.54" ry="18"/>
<text text-anchor="middle" x="2038" y="-99.8" font-family="Times,serif" font-size="14.00">StatsService</text>
</g>
<!-- StatsService&#45;&gt;ListenersModule -->
<g id="edge28" class="edge">
<title>StatsService&#45;&gt;ListenersModule</title>
<path fill="none" stroke="black" d="M1986.85,-113.06C1986.85,-127.96 1986.85,-156 1986.85,-156 1986.85,-156 1763.26,-156 1763.26,-156 1763.26,-156 1763.26,-156.58 1763.26,-156.58"/>
<polygon fill="black" stroke="black" points="1759.76,-151.81 1763.26,-161.81 1766.76,-151.81 1759.76,-151.81"/>
</g>
<!-- StatsService&#45;&gt;StatsModule -->
<g id="edge42" class="edge">
<title>StatsService&#45;&gt;StatsModule</title>
<path fill="none" stroke="black" d="M2093.84,-110C2109.88,-110 2123.13,-110 2123.13,-110 2123.13,-110 2123.13,-151.97 2123.13,-151.97"/>
<polygon fill="black" stroke="black" points="2119.63,-151.97 2123.13,-161.97 2126.63,-151.97 2119.63,-151.97"/>
</g>
<!-- DevService -->
<g id="node24" class="node">
<title>DevService</title>
<ellipse fill="#fdb462" stroke="black" cx="1905" cy="-104" rx="56.16" ry="18"/>
<text text-anchor="middle" x="1905" y="-99.8" font-family="Times,serif" font-size="14.00">DevService</text>
</g>
<!-- DevService&#45;&gt;ListenersModule -->
<g id="edge29" class="edge">
<title>DevService&#45;&gt;ListenersModule</title>
<path fill="none" stroke="black" d="M1905,-122.15C1905,-135.74 1905,-152 1905,-152 1905,-152 1752.17,-152 1752.17,-152 1752.17,-152 1752.17,-152.98 1752.17,-152.98"/>
<polygon fill="black" stroke="black" points="1748.67,-151.79 1752.17,-161.79 1755.67,-151.79 1748.67,-151.79"/>
</g>
<!-- MessageSenderService -->
<g id="node25" class="node">
<title>MessageSenderService</title>
<ellipse fill="#fdb462" stroke="black" cx="1730" cy="-104" rx="100.68" ry="18"/>
<text text-anchor="middle" x="1730" y="-99.8" font-family="Times,serif" font-size="14.00">MessageSenderService</text>
</g>
<!-- MessageSenderService&#45;&gt;ListenersModule -->
<g id="edge32" class="edge">
<title>MessageSenderService&#45;&gt;ListenersModule</title>
<path fill="none" stroke="black" d="M1741.09,-122.01C1741.09,-122.01 1741.09,-151.85 1741.09,-151.85"/>
<polygon fill="black" stroke="black" points="1737.59,-151.85 1741.09,-161.85 1744.59,-151.85 1737.59,-151.85"/>
</g>
<!-- MetaTxnService -->
<g id="node26" class="node">
<title>MetaTxnService</title>
<ellipse fill="#fdb462" stroke="black" cx="1223" cy="-104" rx="75.28" ry="18"/>
<text text-anchor="middle" x="1223" y="-99.8" font-family="Times,serif" font-size="14.00">MetaTxnService</text>
</g>
<!-- MetaTxnService&#45;&gt;ListenersModule -->
<g id="edge33" class="edge">
<title>MetaTxnService&#45;&gt;ListenersModule</title>
<path fill="none" stroke="black" d="M1292.76,-111.08C1292.76,-121.31 1292.76,-139 1292.76,-139 1292.76,-139 1685.65,-139 1685.65,-139 1685.65,-139 1685.65,-151.9 1685.65,-151.9"/>
<polygon fill="black" stroke="black" points="1682.16,-151.9 1685.65,-161.9 1689.16,-151.9 1682.16,-151.9"/>
</g>
<!-- ProjectService -->
<g id="node28" class="node">
<title>ProjectService</title>
<ellipse fill="#fdb462" stroke="black" cx="2204" cy="-104" rx="67.19" ry="18"/>
<text text-anchor="middle" x="2204" y="-99.8" font-family="Times,serif" font-size="14.00">ProjectService</text>
</g>
<!-- ProjectService&#45;&gt;ProjectModule -->
<g id="edge36" class="edge">
<title>ProjectService&#45;&gt;ProjectModule</title>
<path fill="none" stroke="black" d="M2140.44,-98C2120.31,-98 2103.19,-98 2103.19,-98 2103.19,-98 2103.19,-180 2103.19,-180 2103.19,-180 2101.68,-180 2101.68,-180"/>
<polygon fill="black" stroke="black" points="2101.68,-176.5 2091.68,-180 2101.68,-183.5 2101.68,-176.5"/>
</g>
<!-- QueueService -->
<g id="node30" class="node">
<title>QueueService</title>
<ellipse fill="#fdb462" stroke="black" cx="89" cy="-245" rx="65.39" ry="18"/>
<text text-anchor="middle" x="89" y="-240.8" font-family="Times,serif" font-size="14.00">QueueService</text>
</g>
<!-- QueueService&#45;&gt;QueueModule -->
<g id="edge38" class="edge">
<title>QueueService&#45;&gt;QueueModule</title>
<path fill="none" stroke="black" d="M89,-226.72C89,-205.68 89,-174 89,-174 89,-174 989.79,-174 989.79,-174"/>
<polygon fill="black" stroke="black" points="989.79,-177.5 999.79,-174 989.79,-170.5 989.79,-177.5"/>
</g>
<!-- RequestContextService -->
<g id="node32" class="node">
<title>RequestContextService</title>
<ellipse fill="#fdb462" stroke="black" cx="418" cy="-245" rx="101.86" ry="18"/>
<text text-anchor="middle" x="418" y="-240.8" font-family="Times,serif" font-size="14.00">RequestContextService</text>
</g>
<!-- RequestContextService&#45;&gt;RequestContextModule -->
<g id="edge40" class="edge">
<title>RequestContextService&#45;&gt;RequestContextModule</title>
<path fill="none" stroke="black" d="M418,-226.94C418,-215.56 418,-203 418,-203 418,-203 1151.75,-203 1151.75,-203 1151.75,-203 1151.75,-202.51 1151.75,-202.51"/>
<polygon fill="black" stroke="black" points="1155.25,-208.12 1151.75,-198.12 1148.25,-208.12 1155.25,-208.12"/>
</g>
<!-- TokenService -->
<g id="node34" class="node">
<title>TokenService</title>
<ellipse fill="#fdb462" stroke="black" cx="2376" cy="-104" rx="64.83" ry="18"/>
<text text-anchor="middle" x="2376" y="-99.8" font-family="Times,serif" font-size="14.00">TokenService</text>
</g>
<!-- TokenService&#45;&gt;TokenModule -->
<g id="edge43" class="edge">
<title>TokenService&#45;&gt;TokenModule</title>
<path fill="none" stroke="black" d="M2319.48,-113.02C2319.48,-133.15 2319.48,-180 2319.48,-180 2319.48,-180 2318.5,-180 2318.5,-180"/>
<polygon fill="black" stroke="black" points="2319.73,-176.5 2309.73,-180 2319.73,-183.5 2319.73,-176.5"/>
</g>
<!-- UploadService -->
<g id="node35" class="node">
<title>UploadService</title>
<ellipse fill="#fdb462" stroke="black" cx="2549" cy="-104" rx="68.34" ry="18"/>
<text text-anchor="middle" x="2549" y="-99.8" font-family="Times,serif" font-size="14.00">UploadService</text>
</g>
<!-- UploadService&#45;&gt;UploadModule -->
<g id="edge44" class="edge">
<title>UploadService&#45;&gt;UploadModule</title>
<path fill="none" stroke="black" d="M2544.1,-122.01C2544.1,-144.49 2544.1,-180 2544.1,-180 2544.1,-180 2438.28,-180 2438.28,-180"/>
<polygon fill="black" stroke="black" points="2438.28,-176.5 2428.28,-180 2438.28,-183.5 2438.28,-176.5"/>
</g>
</g>
</svg>
