<?xml version="1.0" encoding="UTF-8" standalone="no"?>
<!DOCTYPE svg PUBLIC "-//W3C//DTD SVG 1.1//EN"
 "http://www.w3.org/Graphics/SVG/1.1/DTD/svg11.dtd">
<!-- Generated by graphviz version 2.47.0 (20210316.0004)
 -->
<!-- Title: dependencies Pages: 1 -->
<svg width="3743pt" height="431pt"
 viewBox="0.00 0.00 3743.00 431.00" xmlns="http://www.w3.org/2000/svg" xmlns:xlink="http://www.w3.org/1999/xlink">
<g id="graph0" class="graph" transform="scale(1 1) rotate(0) translate(4 427)">
<title>dependencies</title>
<polygon fill="white" stroke="transparent" points="-4,4 -4,-427 3739,-427 3739,4 -4,4"/>
<text text-anchor="start" x="1846.51" y="-42.4" font-family="Times-12" font-weight="bold" font-size="14.00">Legend</text>
<polygon fill="#ffffb3" stroke="transparent" points="1633.5,-10 1633.5,-30 1653.5,-30 1653.5,-10 1633.5,-10"/>
<text text-anchor="start" x="1657.13" y="-15.4" font-family="Times-12" font-size="14.00"> &#160;Declarations</text>
<polygon fill="#8dd3c7" stroke="transparent" points="1746.5,-10 1746.5,-30 1766.5,-30 1766.5,-10 1746.5,-10"/>
<text text-anchor="start" x="1770.23" y="-15.4" font-family="Times-12" font-size="14.00"> &#160;Module</text>
<polygon fill="#80b1d3" stroke="transparent" points="1832.5,-10 1832.5,-30 1852.5,-30 1852.5,-10 1832.5,-10"/>
<text text-anchor="start" x="1856.28" y="-15.4" font-family="Times-12" font-size="14.00"> &#160;Bootstrap</text>
<polygon fill="#fdb462" stroke="transparent" points="1929.5,-10 1929.5,-30 1949.5,-30 1949.5,-10 1929.5,-10"/>
<text text-anchor="start" x="1953.17" y="-15.4" font-family="Times-12" font-size="14.00"> &#160;Providers</text>
<polygon fill="#fb8072" stroke="transparent" points="2025.5,-10 2025.5,-30 2045.5,-30 2045.5,-10 2025.5,-10"/>
<text text-anchor="start" x="2049.23" y="-15.4" font-family="Times-12" font-size="14.00"> &#160;Exports</text>
<g id="clust1" class="cluster">
<title>cluster_AppModule</title>
<polygon fill="none" stroke="black" stroke-dasharray="1,5" points="846,-146 846,-407 2569,-407 2569,-146 846,-146"/>
</g>
<g id="clust3" class="cluster">
<title>cluster_AppModule_imports</title>
<polygon fill="none" stroke="black" points="992,-154 992,-339 2561,-339 2561,-154 992,-154"/>
</g>
<g id="clust6" class="cluster">
<title>cluster_AppModule_providers</title>
<polygon fill="none" stroke="black" points="854,-287 854,-339 984,-339 984,-287 854,-287"/>
</g>
<g id="clust7" class="cluster">
<title>cluster_AppUsersModule</title>
<polygon fill="none" stroke="black" stroke-dasharray="1,5" points="629,-70 629,-138 807,-138 807,-70 629,-70"/>
</g>
<g id="clust12" class="cluster">
<title>cluster_AppUsersModule_providers</title>
<polygon fill="none" stroke="black" points="637,-78 637,-130 799,-130 799,-78 637,-78"/>
</g>
<g id="clust13" class="cluster">
<title>cluster_BeneficiaryModule</title>
<polygon fill="none" stroke="black" stroke-dasharray="1,5" points="2890,-70 2890,-138 3727,-138 3727,-70 2890,-70"/>
</g>
<g id="clust18" class="cluster">
<title>cluster_BeneficiaryModule_providers</title>
<polygon fill="none" stroke="black" points="2898,-78 2898,-130 3719,-130 3719,-78 2898,-78"/>
</g>
<g id="clust19" class="cluster">
<title>cluster_GrievanceModule</title>
<polygon fill="none" stroke="black" stroke-dasharray="1,5" points="815,-70 815,-138 1007,-138 1007,-70 815,-70"/>
</g>
<g id="clust24" class="cluster">
<title>cluster_GrievanceModule_providers</title>
<polygon fill="none" stroke="black" points="823,-78 823,-130 999,-130 999,-78 823,-78"/>
</g>
<g id="clust25" class="cluster">
<title>cluster_ListenersModule</title>
<polygon fill="none" stroke="black" stroke-dasharray="1,5" points="1015,-70 1015,-138 1996,-138 1996,-70 1015,-70"/>
</g>
<g id="clust30" class="cluster">
<title>cluster_ListenersModule_providers</title>
<polygon fill="none" stroke="black" points="1023,-78 1023,-130 1988,-130 1988,-78 1023,-78"/>
</g>
<g id="clust37" class="cluster">
<title>cluster_OfframpModule</title>
<polygon fill="none" stroke="black" stroke-dasharray="1,5" points="2004,-70 2004,-138 2362,-138 2362,-70 2004,-70"/>
</g>
<g id="clust42" class="cluster">
<title>cluster_OfframpModule_providers</title>
<polygon fill="none" stroke="black" points="2012,-78 2012,-130 2354,-130 2354,-78 2012,-78"/>
</g>
<g id="clust43" class="cluster">
<title>cluster_ProcessorsModule</title>
<polygon fill="none" stroke="black" stroke-dasharray="1,5" points="2577,-347 2577,-415 2749,-415 2749,-347 2577,-347"/>
</g>
<g id="clust46" class="cluster">
<title>cluster_ProcessorsModule_exports</title>
<polygon fill="none" stroke="black" points="2585,-355 2585,-407 2741,-407 2741,-355 2585,-355"/>
</g>
<g id="clust49" class="cluster">
<title>cluster_ProjectModule</title>
<polygon fill="none" stroke="black" stroke-dasharray="1,5" points="2370,-70 2370,-138 2536,-138 2536,-70 2370,-70"/>
</g>
<g id="clust54" class="cluster">
<title>cluster_ProjectModule_providers</title>
<polygon fill="none" stroke="black" points="2378,-78 2378,-130 2528,-130 2528,-78 2378,-78"/>
</g>
<g id="clust55" class="cluster">
<title>cluster_QueueModule</title>
<polygon fill="none" stroke="black" stroke-dasharray="1,5" points="8,-211 8,-279 292,-279 292,-211 8,-211"/>
</g>
<g id="clust58" class="cluster">
<title>cluster_QueueModule_exports</title>
<polygon fill="none" stroke="black" points="170,-219 170,-271 284,-271 284,-219 170,-219"/>
</g>
<g id="clust60" class="cluster">
<title>cluster_QueueModule_providers</title>
<polygon fill="none" stroke="black" points="16,-219 16,-271 162,-271 162,-219 16,-219"/>
</g>
<g id="clust61" class="cluster">
<title>cluster_RequestContextModule</title>
<polygon fill="none" stroke="black" stroke-dasharray="1,5" points="300,-211 300,-279 710,-279 710,-211 300,-211"/>
</g>
<g id="clust64" class="cluster">
<title>cluster_RequestContextModule_exports</title>
<polygon fill="none" stroke="black" points="536,-219 536,-271 702,-271 702,-219 536,-219"/>
</g>
<g id="clust66" class="cluster">
<title>cluster_RequestContextModule_providers</title>
<polygon fill="none" stroke="black" points="308,-219 308,-271 528,-271 528,-219 308,-219"/>
</g>
<g id="clust67" class="cluster">
<title>cluster_StatsModule</title>
<polygon fill="none" stroke="black" stroke-dasharray="1,5" points="718,-211 718,-279 838,-279 838,-211 718,-211"/>
</g>
<g id="clust70" class="cluster">
<title>cluster_StatsModule_exports</title>
<polygon fill="none" stroke="black" points="726,-219 726,-271 830,-271 830,-219 726,-219"/>
</g>
<g id="clust73" class="cluster">
<title>cluster_TokenModule</title>
<polygon fill="none" stroke="black" stroke-dasharray="1,5" points="2544,-70 2544,-138 2706,-138 2706,-70 2544,-70"/>
</g>
<g id="clust78" class="cluster">
<title>cluster_TokenModule_providers</title>
<polygon fill="none" stroke="black" points="2552,-78 2552,-130 2698,-130 2698,-78 2552,-78"/>
</g>
<g id="clust79" class="cluster">
<title>cluster_UploadModule</title>
<polygon fill="none" stroke="black" stroke-dasharray="1,5" points="2714,-70 2714,-138 2882,-138 2882,-70 2714,-70"/>
</g>
<g id="clust84" class="cluster">
<title>cluster_UploadModule_providers</title>
<polygon fill="none" stroke="black" points="2722,-78 2722,-130 2874,-130 2874,-78 2722,-78"/>
</g>
<!-- BeneficiaryModule -->
<g id="node1" class="node">
<title>BeneficiaryModule</title>
<polygon fill="#8dd3c7" stroke="black" points="2452.35,-263 2449.35,-267 2428.35,-267 2425.35,-263 2327.65,-263 2327.65,-227 2452.35,-227 2452.35,-263"/>
<text text-anchor="middle" x="2390" y="-240.8" font-family="Times,serif" font-size="14.00">BeneficiaryModule</text>
</g>
<!-- ProcessorsModule -->
<g id="node3" class="node">
<title>ProcessorsModule</title>
<polygon fill="#8dd3c7" stroke="black" points="2348.92,-331 2345.92,-335 2324.92,-335 2321.92,-331 2229.08,-331 2229.08,-295 2348.92,-295 2348.92,-331"/>
<text text-anchor="middle" x="2289" y="-308.8" font-family="Times,serif" font-size="14.00">ProcessorsModule</text>
</g>
<!-- BeneficiaryModule&#45;&gt;ProcessorsModule -->
<g id="edge38" class="edge">
<title>BeneficiaryModule&#45;&gt;ProcessorsModule</title>
<path fill="none" stroke="black" d="M2338.14,-263.22C2338.14,-263.22 2338.14,-284.73 2338.14,-284.73"/>
<polygon fill="black" stroke="black" points="2334.64,-284.73 2338.14,-294.73 2341.64,-284.73 2334.64,-284.73"/>
</g>
<!-- AppModule -->
<g id="node5" class="node">
<title>AppModule</title>
<polygon fill="#8dd3c7" stroke="black" points="1930.66,-399 1927.66,-403 1906.66,-403 1903.66,-399 1847.34,-399 1847.34,-363 1930.66,-363 1930.66,-399"/>
<text text-anchor="middle" x="1889" y="-376.8" font-family="Times,serif" font-size="14.00">AppModule</text>
</g>
<!-- BeneficiaryModule&#45;&gt;AppModule -->
<g id="edge1" class="edge">
<title>BeneficiaryModule&#45;&gt;AppModule</title>
<path fill="none" stroke="black" d="M2327.64,-249C2194.33,-249 1893.65,-249 1893.65,-249 1893.65,-249 1893.65,-352.92 1893.65,-352.92"/>
<polygon fill="black" stroke="black" points="1890.15,-352.92 1893.65,-362.92 1897.15,-352.92 1890.15,-352.92"/>
</g>
<!-- BeneficiaryModule&#45;&gt;AppModule -->
<g id="edge7" class="edge">
<title>BeneficiaryModule&#45;&gt;AppModule</title>
<path fill="none" stroke="black" d="M2327.32,-256C2195.78,-256 1902.94,-256 1902.94,-256 1902.94,-256 1902.94,-352.82 1902.94,-352.82"/>
<polygon fill="black" stroke="black" points="1899.44,-352.82 1902.94,-362.82 1906.44,-352.82 1899.44,-352.82"/>
</g>
<!-- ListenersModule -->
<g id="node2" class="node">
<title>ListenersModule</title>
<polygon fill="#8dd3c7" stroke="black" points="1785.36,-198 1782.36,-202 1761.36,-202 1758.36,-198 1674.64,-198 1674.64,-162 1785.36,-162 1785.36,-198"/>
<text text-anchor="middle" x="1730" y="-175.8" font-family="Times,serif" font-size="14.00">ListenersModule</text>
</g>
<!-- ListenersModule&#45;&gt;AppModule -->
<g id="edge2" class="edge">
<title>ListenersModule&#45;&gt;AppModule</title>
<path fill="none" stroke="black" d="M1748.48,-198.03C1748.48,-245.08 1748.48,-368 1748.48,-368 1748.48,-368 1837.22,-368 1837.22,-368"/>
<polygon fill="black" stroke="black" points="1837.22,-371.5 1847.22,-368 1837.22,-364.5 1837.22,-371.5"/>
</g>
<!-- ListenersModule&#45;&gt;AppModule -->
<g id="edge9" class="edge">
<title>ListenersModule&#45;&gt;AppModule</title>
<path fill="none" stroke="black" d="M1711.52,-198.06C1711.52,-245.86 1711.52,-372 1711.52,-372 1711.52,-372 1836.94,-372 1836.94,-372"/>
<polygon fill="black" stroke="black" points="1836.94,-375.5 1846.94,-372 1836.94,-368.5 1836.94,-375.5"/>
</g>
<!-- ProcessorsModule&#45;&gt;AppModule -->
<g id="edge3" class="edge">
<title>ProcessorsModule&#45;&gt;AppModule</title>
<path fill="none" stroke="black" d="M2229.14,-324C2125.02,-324 1921.53,-324 1921.53,-324 1921.53,-324 1921.53,-352.96 1921.53,-352.96"/>
<polygon fill="black" stroke="black" points="1918.03,-352.96 1921.53,-362.96 1925.03,-352.96 1918.03,-352.96"/>
</g>
<!-- ProcessorsModule&#45;&gt;AppModule -->
<g id="edge12" class="edge">
<title>ProcessorsModule&#45;&gt;AppModule</title>
<path fill="none" stroke="black" d="M2228.88,-317C2122.51,-317 1912.24,-317 1912.24,-317 1912.24,-317 1912.24,-352.83 1912.24,-352.83"/>
<polygon fill="black" stroke="black" points="1908.74,-352.83 1912.24,-362.83 1915.74,-352.83 1908.74,-352.83"/>
</g>
<!-- BeneficiaryProcessor  -->
<g id="node31" class="node">
<title>BeneficiaryProcessor </title>
<polygon fill="#fb8072" stroke="black" points="2732.72,-399 2593.28,-399 2593.28,-363 2732.72,-363 2732.72,-399"/>
<text text-anchor="middle" x="2663" y="-376.8" font-family="Times,serif" font-size="14.00">BeneficiaryProcessor </text>
</g>
<!-- ProcessorsModule&#45;&gt;BeneficiaryProcessor  -->
<g id="edge39" class="edge">
<title>ProcessorsModule&#45;&gt;BeneficiaryProcessor </title>
<path fill="none" stroke="black" stroke-dasharray="5,2" d="M2348.8,-313C2449.38,-313 2641.53,-313 2641.53,-313 2641.53,-313 2641.53,-352.78 2641.53,-352.78"/>
<polygon fill="black" stroke="black" points="2638.03,-352.78 2641.53,-362.78 2645.03,-352.78 2638.03,-352.78"/>
</g>
<!-- VendorsModule -->
<g id="node4" class="node">
<title>VendorsModule</title>
<polygon fill="#8dd3c7" stroke="black" points="1388.48,-198 1385.48,-202 1364.48,-202 1361.48,-198 1281.52,-198 1281.52,-162 1388.48,-162 1388.48,-198"/>
<text text-anchor="middle" x="1335" y="-175.8" font-family="Times,serif" font-size="14.00">VendorsModule</text>
</g>
<!-- VendorsModule&#45;&gt;AppModule -->
<g id="edge4" class="edge">
<title>VendorsModule&#45;&gt;AppModule</title>
<path fill="none" stroke="black" d="M1335,-198.28C1335,-248.7 1335,-386 1335,-386 1335,-386 1836.91,-386 1836.91,-386"/>
<polygon fill="black" stroke="black" points="1836.91,-389.5 1846.91,-386 1836.91,-382.5 1836.91,-389.5"/>
</g>
<!-- AppService -->
<g id="node6" class="node">
<title>AppService</title>
<ellipse fill="#fdb462" stroke="black" cx="919" cy="-313" rx="56.74" ry="18"/>
<text text-anchor="middle" x="919" y="-308.8" font-family="Times,serif" font-size="14.00">AppService</text>
</g>
<!-- AppService&#45;&gt;AppModule -->
<g id="edge5" class="edge">
<title>AppService&#45;&gt;AppModule</title>
<path fill="none" stroke="black" d="M974.84,-310C1176.65,-310 1856.47,-310 1856.47,-310 1856.47,-310 1856.47,-352.72 1856.47,-352.72"/>
<polygon fill="black" stroke="black" points="1852.97,-352.72 1856.47,-362.72 1859.97,-352.72 1852.97,-352.72"/>
</g>
<!-- AppService&#45;&gt;AppModule -->
<g id="edge19" class="edge">
<title>AppService&#45;&gt;AppModule</title>
<path fill="none" stroke="black" d="M966.27,-303C1157.79,-303 1865.76,-303 1865.76,-303 1865.76,-303 1865.76,-352.91 1865.76,-352.91"/>
<polygon fill="black" stroke="black" points="1862.26,-352.91 1865.76,-362.91 1869.26,-352.91 1862.26,-352.91"/>
</g>
<!-- AppUsersModule -->
<g id="node7" class="node">
<title>AppUsersModule</title>
<polygon fill="#8dd3c7" stroke="black" points="1521.53,-198 1518.53,-202 1497.53,-202 1494.53,-198 1406.47,-198 1406.47,-162 1521.53,-162 1521.53,-198"/>
<text text-anchor="middle" x="1464" y="-175.8" font-family="Times,serif" font-size="14.00">AppUsersModule</text>
</g>
<!-- AppUsersModule&#45;&gt;AppModule -->
<g id="edge6" class="edge">
<title>AppUsersModule&#45;&gt;AppModule</title>
<path fill="none" stroke="black" d="M1464,-198.19C1464,-247.67 1464,-381 1464,-381 1464,-381 1837.09,-381 1837.09,-381"/>
<polygon fill="black" stroke="black" points="1837.09,-384.5 1847.09,-381 1837.09,-377.5 1837.09,-384.5"/>
</g>
<!-- GrievanceModule -->
<g id="node8" class="node">
<title>GrievanceModule</title>
<polygon fill="#8dd3c7" stroke="black" points="1656.57,-198 1653.57,-202 1632.57,-202 1629.57,-198 1539.43,-198 1539.43,-162 1656.57,-162 1656.57,-198"/>
<text text-anchor="middle" x="1598" y="-175.8" font-family="Times,serif" font-size="14.00">GrievanceModule</text>
</g>
<!-- GrievanceModule&#45;&gt;AppModule -->
<g id="edge8" class="edge">
<title>GrievanceModule&#45;&gt;AppModule</title>
<path fill="none" stroke="black" d="M1598,-198.18C1598,-246.95 1598,-377 1598,-377 1598,-377 1837.31,-377 1837.31,-377"/>
<polygon fill="black" stroke="black" points="1837.31,-380.5 1847.31,-377 1837.31,-373.5 1837.31,-380.5"/>
</g>
<!-- MetaTxnProcessorsModule -->
<g id="node9" class="node">
<title>MetaTxnProcessorsModule</title>
<polygon fill="#8dd3c7" stroke="black" points="1974.23,-198 1971.23,-202 1950.23,-202 1947.23,-198 1803.77,-198 1803.77,-162 1974.23,-162 1974.23,-198"/>
<text text-anchor="middle" x="1889" y="-175.8" font-family="Times,serif" font-size="14.00">MetaTxnProcessorsModule</text>
</g>
<!-- MetaTxnProcessorsModule&#45;&gt;AppModule -->
<g id="edge10" class="edge">
<title>MetaTxnProcessorsModule&#45;&gt;AppModule</title>
<path fill="none" stroke="black" d="M1875.06,-198.19C1875.06,-198.19 1875.06,-352.99 1875.06,-352.99"/>
<polygon fill="black" stroke="black" points="1871.56,-352.99 1875.06,-362.99 1878.56,-352.99 1871.56,-352.99"/>
</g>
<!-- OfframpModule -->
<g id="node10" class="node">
<title>OfframpModule</title>
<polygon fill="#8dd3c7" stroke="black" points="2204.74,-198 2201.74,-202 2180.74,-202 2177.74,-198 2097.26,-198 2097.26,-162 2204.74,-162 2204.74,-198"/>
<text text-anchor="middle" x="2151" y="-175.8" font-family="Times,serif" font-size="14.00">OfframpModule</text>
</g>
<!-- OfframpModule&#45;&gt;AppModule -->
<g id="edge11" class="edge">
<title>OfframpModule&#45;&gt;AppModule</title>
<path fill="none" stroke="black" d="M2151,-198.27C2151,-247.29 2151,-378 2151,-378 2151,-378 1940.8,-378 1940.8,-378"/>
<polygon fill="black" stroke="black" points="1940.8,-374.5 1930.8,-378 1940.8,-381.5 1940.8,-374.5"/>
</g>
<!-- ProjectModule -->
<g id="node11" class="node">
<title>ProjectModule</title>
<polygon fill="#8dd3c7" stroke="black" points="2321.7,-198 2318.7,-202 2297.7,-202 2294.7,-198 2222.3,-198 2222.3,-162 2321.7,-162 2321.7,-198"/>
<text text-anchor="middle" x="2272" y="-175.8" font-family="Times,serif" font-size="14.00">ProjectModule</text>
</g>
<!-- ProjectModule&#45;&gt;AppModule -->
<g id="edge13" class="edge">
<title>ProjectModule&#45;&gt;AppModule</title>
<path fill="none" stroke="black" d="M2222.25,-180C2217.06,-180 2213.64,-180 2213.64,-180 2213.64,-180 2213.64,-385 2213.64,-385 2213.64,-385 1940.78,-385 1940.78,-385"/>
<polygon fill="black" stroke="black" points="1940.78,-381.5 1930.78,-385 1940.78,-388.5 1940.78,-381.5"/>
</g>
<!-- QueueModule -->
<g id="node12" class="node">
<title>QueueModule</title>
<polygon fill="#8dd3c7" stroke="black" points="1096.09,-198 1093.09,-202 1072.09,-202 1069.09,-198 999.91,-198 999.91,-162 1096.09,-162 1096.09,-198"/>
<text text-anchor="middle" x="1048" y="-175.8" font-family="Times,serif" font-size="14.00">QueueModule</text>
</g>
<!-- QueueModule&#45;&gt;AppModule -->
<g id="edge14" class="edge">
<title>QueueModule&#45;&gt;AppModule</title>
<path fill="none" stroke="black" d="M1048,-198.33C1048,-250.32 1048,-395 1048,-395 1048,-395 1837.29,-395 1837.29,-395"/>
<polygon fill="black" stroke="black" points="1837.29,-398.5 1847.29,-395 1837.29,-391.5 1837.29,-398.5"/>
</g>
<!-- QueueService  -->
<g id="node33" class="node">
<title>QueueService </title>
<polygon fill="#fb8072" stroke="black" points="276.01,-263 177.99,-263 177.99,-227 276.01,-227 276.01,-263"/>
<text text-anchor="middle" x="227" y="-240.8" font-family="Times,serif" font-size="14.00">QueueService </text>
</g>
<!-- QueueModule&#45;&gt;QueueService  -->
<g id="edge41" class="edge">
<title>QueueModule&#45;&gt;QueueService </title>
<path fill="none" stroke="black" stroke-dasharray="5,2" d="M999.71,-186C823.72,-186 227,-186 227,-186 227,-186 227,-216.98 227,-216.98"/>
<polygon fill="black" stroke="black" points="223.5,-216.98 227,-226.98 230.5,-216.98 223.5,-216.98"/>
</g>
<!-- RequestContextModule -->
<g id="node13" class="node">
<title>RequestContextModule</title>
<polygon fill="#8dd3c7" stroke="black" points="1263.48,-198 1260.48,-202 1239.48,-202 1236.48,-198 1114.52,-198 1114.52,-162 1263.48,-162 1263.48,-198"/>
<text text-anchor="middle" x="1189" y="-175.8" font-family="Times,serif" font-size="14.00">RequestContextModule</text>
</g>
<!-- RequestContextModule&#45;&gt;AppModule -->
<g id="edge15" class="edge">
<title>RequestContextModule&#45;&gt;AppModule</title>
<path fill="none" stroke="black" d="M1226.25,-198.27C1226.25,-249.36 1226.25,-390 1226.25,-390 1226.25,-390 1837.29,-390 1837.29,-390"/>
<polygon fill="black" stroke="black" points="1837.29,-393.5 1847.29,-390 1837.29,-386.5 1837.29,-393.5"/>
</g>
<!-- RequestContextService  -->
<g id="node35" class="node">
<title>RequestContextService </title>
<polygon fill="#fb8072" stroke="black" points="694.41,-263 543.59,-263 543.59,-227 694.41,-227 694.41,-263"/>
<text text-anchor="middle" x="619" y="-240.8" font-family="Times,serif" font-size="14.00">RequestContextService </text>
</g>
<!-- RequestContextModule&#45;&gt;RequestContextService  -->
<g id="edge43" class="edge">
<title>RequestContextModule&#45;&gt;RequestContextService </title>
<path fill="none" stroke="black" stroke-dasharray="5,2" d="M1189,-198.04C1189,-205.75 1189,-213 1189,-213 1189,-213 669.87,-213 669.87,-213 669.87,-213 669.87,-216.76 669.87,-216.76"/>
<polygon fill="black" stroke="black" points="666.37,-216.76 669.87,-226.76 673.37,-216.76 666.37,-216.76"/>
</g>
<!-- StatsModule -->
<g id="node14" class="node">
<title>StatsModule</title>
<polygon fill="#8dd3c7" stroke="black" points="2079.27,-198 2076.27,-202 2055.27,-202 2052.27,-198 1992.73,-198 1992.73,-162 2079.27,-162 2079.27,-198"/>
<text text-anchor="middle" x="2036" y="-175.8" font-family="Times,serif" font-size="14.00">StatsModule</text>
</g>
<!-- StatsModule&#45;&gt;BeneficiaryModule -->
<g id="edge21" class="edge">
<title>StatsModule&#45;&gt;BeneficiaryModule</title>
<path fill="none" stroke="black" d="M2057.69,-198.27C2057.69,-216.56 2057.69,-242 2057.69,-242 2057.69,-242 2317.5,-242 2317.5,-242"/>
<polygon fill="black" stroke="black" points="2317.5,-245.5 2327.5,-242 2317.5,-238.5 2317.5,-245.5"/>
</g>
<!-- StatsModule&#45;&gt;AppModule -->
<g id="edge16" class="edge">
<title>StatsModule&#45;&gt;AppModule</title>
<path fill="none" stroke="black" d="M2036,-198.31C2036,-246.12 2036,-371 2036,-371 2036,-371 1940.73,-371 1940.73,-371"/>
<polygon fill="black" stroke="black" points="1940.73,-367.5 1930.73,-371 1940.73,-374.5 1940.73,-367.5"/>
</g>
<!-- StatsService  -->
<g id="node37" class="node">
<title>StatsService </title>
<polygon fill="#fb8072" stroke="black" points="822.2,-263 733.8,-263 733.8,-227 822.2,-227 822.2,-263"/>
<text text-anchor="middle" x="778" y="-240.8" font-family="Times,serif" font-size="14.00">StatsService </text>
</g>
<!-- StatsModule&#45;&gt;StatsService  -->
<g id="edge45" class="edge">
<title>StatsModule&#45;&gt;StatsService </title>
<path fill="none" stroke="black" stroke-dasharray="5,2" d="M2014.31,-198.01C2014.31,-214.05 2014.31,-235 2014.31,-235 2014.31,-235 832.37,-235 832.37,-235"/>
<polygon fill="black" stroke="black" points="832.37,-231.5 822.37,-235 832.37,-238.5 832.37,-231.5"/>
</g>
<!-- TokenModule -->
<g id="node15" class="node">
<title>TokenModule</title>
<polygon fill="#8dd3c7" stroke="black" points="2434.82,-198 2431.82,-202 2410.82,-202 2407.82,-198 2339.18,-198 2339.18,-162 2434.82,-162 2434.82,-198"/>
<text text-anchor="middle" x="2387" y="-175.8" font-family="Times,serif" font-size="14.00">TokenModule</text>
</g>
<!-- TokenModule&#45;&gt;AppModule -->
<g id="edge17" class="edge">
<title>TokenModule&#45;&gt;AppModule</title>
<path fill="none" stroke="black" d="M2387,-198.13C2387,-208.71 2387,-220 2387,-220 2387,-220 1884.35,-220 1884.35,-220 1884.35,-220 1884.35,-352.84 1884.35,-352.84"/>
<polygon fill="black" stroke="black" points="1880.85,-352.84 1884.35,-362.84 1887.85,-352.84 1880.85,-352.84"/>
</g>
<!-- UploadModule -->
<g id="node16" class="node">
<title>UploadModule</title>
<polygon fill="#8dd3c7" stroke="black" points="2553.26,-198 2550.26,-202 2529.26,-202 2526.26,-198 2452.74,-198 2452.74,-162 2553.26,-162 2553.26,-198"/>
<text text-anchor="middle" x="2503" y="-175.8" font-family="Times,serif" font-size="14.00">UploadModule</text>
</g>
<!-- UploadModule&#45;&gt;AppModule -->
<g id="edge18" class="edge">
<title>UploadModule&#45;&gt;AppModule</title>
<path fill="none" stroke="black" d="M2503,-198.08C2503,-249.34 2503,-392 2503,-392 2503,-392 1940.72,-392 1940.72,-392"/>
<polygon fill="black" stroke="black" points="1940.72,-388.5 1930.72,-392 1940.72,-395.5 1940.72,-388.5"/>
</g>
<!-- VendorsService -->
<g id="node17" class="node">
<title>VendorsService</title>
<ellipse fill="#fdb462" stroke="black" cx="718" cy="-104" rx="72.91" ry="18"/>
<text text-anchor="middle" x="718" y="-99.8" font-family="Times,serif" font-size="14.00">VendorsService</text>
</g>
<!-- VendorsService&#45;&gt;VendorsModule -->
<g id="edge49" class="edge">
<title>VendorsService&#45;&gt;VendorsModule</title>
<path fill="none" stroke="black" d="M752.67,-120.01C752.67,-132.24 752.67,-147 752.67,-147 752.67,-147 1298.73,-147 1298.73,-147 1298.73,-147 1298.73,-151.96 1298.73,-151.96"/>
<polygon fill="black" stroke="black" points="1295.23,-151.96 1298.73,-161.96 1302.23,-151.96 1295.23,-151.96"/>
</g>
<!-- VendorsService&#45;&gt;AppUsersModule -->
<g id="edge20" class="edge">
<title>VendorsService&#45;&gt;AppUsersModule</title>
<path fill="none" stroke="black" d="M771.69,-116.22C771.69,-127.98 771.69,-144 771.69,-144 771.69,-144 1428.19,-144 1428.19,-144 1428.19,-144 1428.19,-151.58 1428.19,-151.58"/>
<polygon fill="black" stroke="black" points="1424.69,-151.58 1428.19,-161.58 1431.69,-151.58 1424.69,-151.58"/>
</g>
<!-- BeneficiaryService -->
<g id="node18" class="node">
<title>BeneficiaryService</title>
<ellipse fill="#fdb462" stroke="black" cx="3209" cy="-104" rx="85.07" ry="18"/>
<text text-anchor="middle" x="3209" y="-99.8" font-family="Times,serif" font-size="14.00">BeneficiaryService</text>
</g>
<!-- BeneficiaryService&#45;&gt;BeneficiaryModule -->
<g id="edge22" class="edge">
<title>BeneficiaryService&#45;&gt;BeneficiaryModule</title>
<path fill="none" stroke="black" d="M3209,-122.04C3209,-159.45 3209,-242 3209,-242 3209,-242 2462.57,-242 2462.57,-242"/>
<polygon fill="black" stroke="black" points="2462.57,-238.5 2452.57,-242 2462.57,-245.5 2462.57,-238.5"/>
</g>
<!-- BeneficiaryStatService -->
<g id="node19" class="node">
<title>BeneficiaryStatService</title>
<ellipse fill="#fdb462" stroke="black" cx="3006" cy="-104" rx="100.11" ry="18"/>
<text text-anchor="middle" x="3006" y="-99.8" font-family="Times,serif" font-size="14.00">BeneficiaryStatService</text>
</g>
<!-- BeneficiaryStatService&#45;&gt;BeneficiaryModule -->
<g id="edge23" class="edge">
<title>BeneficiaryStatService&#45;&gt;BeneficiaryModule</title>
<path fill="none" stroke="black" d="M3039.35,-121.13C3039.35,-156.64 3039.35,-235 3039.35,-235 3039.35,-235 2462.56,-235 2462.56,-235"/>
<polygon fill="black" stroke="black" points="2462.56,-231.5 2452.56,-235 2462.56,-238.5 2462.56,-231.5"/>
</g>
<!-- BeneficiaryStatService&#45;&gt;ListenersModule -->
<g id="edge27" class="edge">
<title>BeneficiaryStatService&#45;&gt;ListenersModule</title>
<path fill="none" stroke="black" d="M2972.65,-121.14C2972.65,-135.27 2972.65,-153 2972.65,-153 2972.65,-153 1772.05,-153 1772.05,-153 1772.05,-153 1772.05,-153.88 1772.05,-153.88"/>
<polygon fill="black" stroke="black" points="1768.55,-151.84 1772.05,-161.84 1775.55,-151.84 1768.55,-151.84"/>
</g>
<!-- BeneficiaryUtilsService -->
<g id="node20" class="node">
<title>BeneficiaryUtilsService</title>
<ellipse fill="#fdb462" stroke="black" cx="3416" cy="-104" rx="103.62" ry="18"/>
<text text-anchor="middle" x="3416" y="-99.8" font-family="Times,serif" font-size="14.00">BeneficiaryUtilsService</text>
</g>
<!-- BeneficiaryUtilsService&#45;&gt;BeneficiaryModule -->
<g id="edge24" class="edge">
<title>BeneficiaryUtilsService&#45;&gt;BeneficiaryModule</title>
<path fill="none" stroke="black" d="M3416,-122.07C3416,-160.94 3416,-249 3416,-249 3416,-249 2462.64,-249 2462.64,-249"/>
<polygon fill="black" stroke="black" points="2462.64,-245.5 2452.64,-249 2462.64,-252.5 2462.64,-245.5"/>
</g>
<!-- VerificationService -->
<g id="node21" class="node">
<title>VerificationService</title>
<ellipse fill="#fdb462" stroke="black" cx="3624" cy="-104" rx="86.79" ry="18"/>
<text text-anchor="middle" x="3624" y="-99.8" font-family="Times,serif" font-size="14.00">VerificationService</text>
</g>
<!-- VerificationService&#45;&gt;BeneficiaryModule -->
<g id="edge25" class="edge">
<title>VerificationService&#45;&gt;BeneficiaryModule</title>
<path fill="none" stroke="black" d="M3624,-122.03C3624,-162.3 3624,-256 3624,-256 3624,-256 2462.46,-256 2462.46,-256"/>
<polygon fill="black" stroke="black" points="2462.46,-252.5 2452.46,-256 2462.46,-259.5 2462.46,-252.5"/>
</g>
<!-- GrievanceService -->
<g id="node22" class="node">
<title>GrievanceService</title>
<ellipse fill="#fdb462" stroke="black" cx="911" cy="-104" rx="79.83" ry="18"/>
<text text-anchor="middle" x="911" y="-99.8" font-family="Times,serif" font-size="14.00">GrievanceService</text>
</g>
<!-- GrievanceService&#45;&gt;GrievanceModule -->
<g id="edge26" class="edge">
<title>GrievanceService&#45;&gt;GrievanceModule</title>
<path fill="none" stroke="black" d="M983.14,-111.85C983.14,-122.71 983.14,-141 983.14,-141 983.14,-141 1598,-141 1598,-141 1598,-141 1598,-151.87 1598,-151.87"/>
<polygon fill="black" stroke="black" points="1594.5,-151.87 1598,-161.87 1601.5,-151.87 1594.5,-151.87"/>
</g>
<!-- EmailService -->
<g id="node23" class="node">
<title>EmailService</title>
<ellipse fill="#fdb462" stroke="black" cx="1431" cy="-104" rx="63.12" ry="18"/>
<text text-anchor="middle" x="1431" y="-99.8" font-family="Times,serif" font-size="14.00">EmailService</text>
</g>
<!-- EmailService&#45;&gt;ListenersModule -->
<g id="edge28" class="edge">
<title>EmailService&#45;&gt;ListenersModule</title>
<path fill="none" stroke="black" d="M1472.1,-117.81C1472.1,-122.23 1472.1,-126 1472.1,-126 1472.1,-126 1702.44,-126 1702.44,-126 1702.44,-126 1702.44,-151.72 1702.44,-151.72"/>
<polygon fill="black" stroke="black" points="1698.94,-151.72 1702.44,-161.72 1705.94,-151.72 1698.94,-151.72"/>
</g>
<!-- EmailService&#45;&gt;ListenersModule -->
<g id="edge32" class="edge">
<title>EmailService&#45;&gt;ListenersModule</title>
<path fill="none" stroke="black" d="M1450.15,-121.36C1450.15,-125.63 1450.15,-129 1450.15,-129 1450.15,-129 1696.87,-129 1696.87,-129 1696.87,-129 1696.87,-151.88 1696.87,-151.88"/>
<polygon fill="black" stroke="black" points="1693.37,-151.88 1696.87,-161.88 1700.37,-151.88 1693.37,-151.88"/>
</g>
<!-- ListenersService -->
<g id="node24" class="node">
<title>ListenersService</title>
<ellipse fill="#fdb462" stroke="black" cx="1275" cy="-104" rx="75.27" ry="18"/>
<text text-anchor="middle" x="1275" y="-99.8" font-family="Times,serif" font-size="14.00">ListenersService</text>
</g>
<!-- ListenersService&#45;&gt;ListenersModule -->
<g id="edge29" class="edge">
<title>ListenersService&#45;&gt;ListenersModule</title>
<path fill="none" stroke="black" d="M1315.95,-119.14C1315.95,-127.01 1315.95,-135 1315.95,-135 1315.95,-135 1685.72,-135 1685.72,-135 1685.72,-135 1685.72,-151.96 1685.72,-151.96"/>
<polygon fill="black" stroke="black" points="1682.22,-151.96 1685.72,-161.96 1689.22,-151.96 1682.22,-151.96"/>
</g>
<!-- ListenersService&#45;&gt;ListenersModule -->
<g id="edge33" class="edge">
<title>ListenersService&#45;&gt;ListenersModule</title>
<path fill="none" stroke="black" d="M1333.17,-115.71C1333.17,-123.39 1333.17,-132 1333.17,-132 1333.17,-132 1691.29,-132 1691.29,-132 1691.29,-132 1691.29,-151.85 1691.29,-151.85"/>
<polygon fill="black" stroke="black" points="1687.79,-151.85 1691.29,-161.85 1694.79,-151.85 1687.79,-151.85"/>
</g>
<!-- StatsService -->
<g id="node25" class="node">
<title>StatsService</title>
<ellipse fill="#fdb462" stroke="black" cx="1921" cy="-104" rx="58.54" ry="18"/>
<text text-anchor="middle" x="1921" y="-99.8" font-family="Times,serif" font-size="14.00">StatsService</text>
</g>
<!-- StatsService&#45;&gt;ListenersModule -->
<g id="edge30" class="edge">
<title>StatsService&#45;&gt;ListenersModule</title>
<path fill="none" stroke="black" d="M1918.3,-122.18C1918.3,-135.04 1918.3,-150 1918.3,-150 1918.3,-150 1758.68,-150 1758.68,-150 1758.68,-150 1758.68,-151.86 1758.68,-151.86"/>
<polygon fill="black" stroke="black" points="1755.18,-151.86 1758.68,-161.86 1762.18,-151.86 1755.18,-151.86"/>
</g>
<!-- StatsService&#45;&gt;StatsModule -->
<g id="edge46" class="edge">
<title>StatsService&#45;&gt;StatsModule</title>
<path fill="none" stroke="black" d="M1980.17,-104C1994.7,-104 2006.19,-104 2006.19,-104 2006.19,-104 2006.19,-151.99 2006.19,-151.99"/>
<polygon fill="black" stroke="black" points="2002.69,-151.99 2006.19,-161.99 2009.69,-151.99 2002.69,-151.99"/>
</g>
<!-- DevService -->
<g id="node26" class="node">
<title>DevService</title>
<ellipse fill="#fdb462" stroke="black" cx="1788" cy="-104" rx="56.16" ry="18"/>
<text text-anchor="middle" x="1788" y="-99.8" font-family="Times,serif" font-size="14.00">DevService</text>
</g>
<!-- DevService&#45;&gt;ListenersModule -->
<g id="edge31" class="edge">
<title>DevService&#45;&gt;ListenersModule</title>
<path fill="none" stroke="black" d="M1745.3,-115.88C1745.3,-115.88 1745.3,-151.99 1745.3,-151.99"/>
<polygon fill="black" stroke="black" points="1741.8,-151.99 1745.3,-161.99 1748.8,-151.99 1741.8,-151.99"/>
</g>
<!-- MessageSenderService -->
<g id="node27" class="node">
<title>MessageSenderService</title>
<ellipse fill="#fdb462" stroke="black" cx="1613" cy="-104" rx="100.68" ry="18"/>
<text text-anchor="middle" x="1613" y="-99.8" font-family="Times,serif" font-size="14.00">MessageSenderService</text>
</g>
<!-- MessageSenderService&#45;&gt;ListenersModule -->
<g id="edge34" class="edge">
<title>MessageSenderService&#45;&gt;ListenersModule</title>
<path fill="none" stroke="black" d="M1708.01,-109.96C1708.01,-109.96 1708.01,-151.93 1708.01,-151.93"/>
<polygon fill="black" stroke="black" points="1704.51,-151.93 1708.01,-161.93 1711.51,-151.93 1704.51,-151.93"/>
</g>
<!-- MetaTxnService -->
<g id="node28" class="node">
<title>MetaTxnService</title>
<ellipse fill="#fdb462" stroke="black" cx="1106" cy="-104" rx="75.28" ry="18"/>
<text text-anchor="middle" x="1106" y="-99.8" font-family="Times,serif" font-size="14.00">MetaTxnService</text>
</g>
<!-- MetaTxnService&#45;&gt;ListenersModule -->
<g id="edge35" class="edge">
<title>MetaTxnService&#45;&gt;ListenersModule</title>
<path fill="none" stroke="black" d="M1147.95,-119.01C1147.95,-128.12 1147.95,-138 1147.95,-138 1147.95,-138 1680.14,-138 1680.14,-138 1680.14,-138 1680.14,-151.94 1680.14,-151.94"/>
<polygon fill="black" stroke="black" points="1676.64,-151.94 1680.14,-161.94 1683.64,-151.94 1676.64,-151.94"/>
</g>
<!-- KotaniPayService -->
<g id="node29" class="node">
<title>KotaniPayService</title>
<ellipse fill="#fdb462" stroke="black" cx="2265" cy="-104" rx="80.52" ry="18"/>
<text text-anchor="middle" x="2265" y="-99.8" font-family="Times,serif" font-size="14.00">KotaniPayService</text>
</g>
<!-- KotaniPayService&#45;&gt;OfframpModule -->
<g id="edge36" class="edge">
<title>KotaniPayService&#45;&gt;OfframpModule</title>
<path fill="none" stroke="black" d="M2194.56,-113.02C2194.56,-113.02 2194.56,-151.74 2194.56,-151.74"/>
<polygon fill="black" stroke="black" points="2191.06,-151.74 2194.56,-161.74 2198.06,-151.74 2191.06,-151.74"/>
</g>
<!-- OfframpService -->
<g id="node30" class="node">
<title>OfframpService</title>
<ellipse fill="#fdb462" stroke="black" cx="2093" cy="-104" rx="73.47" ry="18"/>
<text text-anchor="middle" x="2093" y="-99.8" font-family="Times,serif" font-size="14.00">OfframpService</text>
</g>
<!-- OfframpService&#45;&gt;OfframpModule -->
<g id="edge37" class="edge">
<title>OfframpService&#45;&gt;OfframpModule</title>
<path fill="none" stroke="black" d="M2131.68,-119.38C2131.68,-119.38 2131.68,-151.97 2131.68,-151.97"/>
<polygon fill="black" stroke="black" points="2128.18,-151.97 2131.68,-161.97 2135.18,-151.97 2128.18,-151.97"/>
</g>
<!-- ProjectService -->
<g id="node32" class="node">
<title>ProjectService</title>
<ellipse fill="#fdb462" stroke="black" cx="2453" cy="-104" rx="67.19" ry="18"/>
<text text-anchor="middle" x="2453" y="-99.8" font-family="Times,serif" font-size="14.00">ProjectService</text>
</g>
<!-- ProjectService&#45;&gt;ProjectModule -->
<g id="edge40" class="edge">
<title>ProjectService&#45;&gt;ProjectModule</title>
<path fill="none" stroke="black" d="M2401.99,-115.8C2401.99,-131.14 2401.99,-156 2401.99,-156 2401.99,-156 2272,-156 2272,-156 2272,-156 2272,-156.58 2272,-156.58"/>
<polygon fill="black" stroke="black" points="2268.5,-151.81 2272,-161.81 2275.5,-151.81 2268.5,-151.81"/>
</g>
<!-- QueueService -->
<g id="node34" class="node">
<title>QueueService</title>
<ellipse fill="#fdb462" stroke="black" cx="89" cy="-245" rx="65.39" ry="18"/>
<text text-anchor="middle" x="89" y="-240.8" font-family="Times,serif" font-size="14.00">QueueService</text>
</g>
<!-- QueueService&#45;&gt;QueueModule -->
<g id="edge42" class="edge">
<title>QueueService&#45;&gt;QueueModule</title>
<path fill="none" stroke="black" d="M89,-226.72C89,-205.68 89,-174 89,-174 89,-174 989.79,-174 989.79,-174"/>
<polygon fill="black" stroke="black" points="989.79,-177.5 999.79,-174 989.79,-170.5 989.79,-177.5"/>
</g>
<!-- RequestContextService -->
<g id="node36" class="node">
<title>RequestContextService</title>
<ellipse fill="#fdb462" stroke="black" cx="418" cy="-245" rx="101.86" ry="18"/>
<text text-anchor="middle" x="418" y="-240.8" font-family="Times,serif" font-size="14.00">RequestContextService</text>
</g>
<!-- RequestContextService&#45;&gt;RequestContextModule -->
<g id="edge44" class="edge">
<title>RequestContextService&#45;&gt;RequestContextModule</title>
<path fill="none" stroke="black" d="M418,-226.87C418,-216.69 418,-206 418,-206 418,-206 1151.75,-206 1151.75,-206 1151.75,-206 1151.75,-205.21 1151.75,-205.21"/>
<polygon fill="black" stroke="black" points="1155.25,-208.06 1151.75,-198.06 1148.25,-208.06 1155.25,-208.06"/>
</g>
<!-- TokenService -->
<g id="node38" class="node">
<title>TokenService</title>
<ellipse fill="#fdb462" stroke="black" cx="2625" cy="-104" rx="64.83" ry="18"/>
<text text-anchor="middle" x="2625" y="-99.8" font-family="Times,serif" font-size="14.00">TokenService</text>
</g>
<!-- TokenService&#45;&gt;TokenModule -->
<g id="edge47" class="edge">
<title>TokenService&#45;&gt;TokenModule</title>
<path fill="none" stroke="black" d="M2576.86,-116.21C2576.86,-132.41 2576.86,-159 2576.86,-159 2576.86,-159 2418.32,-159 2418.32,-159 2418.32,-159 2418.32,-159.29 2418.32,-159.29"/>
<polygon fill="black" stroke="black" points="2414.82,-151.92 2418.32,-161.92 2421.82,-151.92 2414.82,-151.92"/>
</g>
<!-- UploadService -->
<g id="node39" class="node">
<title>UploadService</title>
<ellipse fill="#fdb462" stroke="black" cx="2798" cy="-104" rx="68.34" ry="18"/>
<text text-anchor="middle" x="2798" y="-99.8" font-family="Times,serif" font-size="14.00">UploadService</text>
</g>
<!-- UploadService&#45;&gt;UploadModule -->
<g id="edge48" class="edge">
<title>UploadService&#45;&gt;UploadModule</title>
<path fill="none" stroke="black" d="M2799.51,-122.01C2799.51,-144.49 2799.51,-180 2799.51,-180 2799.51,-180 2563.3,-180 2563.3,-180"/>
<polygon fill="black" stroke="black" points="2563.3,-176.5 2553.3,-180 2563.3,-183.5 2563.3,-176.5"/>
</g>
</g>
</svg>
